<svg preserveAspectRatio="none" width="100%" height="100%" overflow="visible" style="display: block;" viewBox="0 0 45.3907 52.7489" fill="none" xmlns="http://www.w3.org/2000/svg">
<path id="Vector" fill-rule="evenodd" clip-rule="evenodd" d="M7.35821 0.0157143L30.5761 0.00392852V9.05143L7.35821 9.06321C6.30954 9.06441 5.28802 8.72987 4.44321 8.10857L0.679643 5.33107C0.556161 5.23975 0.455818 5.12073 0.386674 4.98359C0.31753 4.84646 0.281511 4.69501 0.281511 4.54143C0.281511 4.38784 0.31753 4.2364 0.386674 4.09926C0.455818 3.96212 0.556161 3.84311 0.679643 3.75179L4.44714 0.970357C5.28931 0.349251 6.30786 0.0134051 7.35429 0.0117856L7.35821 0.0157143ZM40.1343 9.04357L35.4868 9.0475V0H40.15C42.6407 0.0392857 44.5461 2.25107 44.5461 4.51786C44.5461 6.78857 42.6407 9.00429 40.15 9.04357H40.1343ZM16.8339 18.1186C18.15 18.645 19.2696 19.2225 20.24 19.7961V52.7489C18.7422 51.625 17.1047 50.7006 15.3686 49.9989C12.4811 48.8439 8.31679 47.8893 1.96429 47.8893C1.44332 47.8893 0.943701 47.6823 0.575326 47.314C0.206951 46.9456 0 46.446 0 45.925V17.6864C0 17.1655 0.206951 16.6658 0.575326 16.2975C0.943701 15.9291 1.44332 15.7221 1.96429 15.7221C8.72143 15.7221 13.3964 16.7396 16.8339 18.1186ZM30.0182 49.9989C27.8968 50.8514 26.4079 51.8296 25.1468 52.745V19.7921C26.1171 19.2186 27.2407 18.6411 28.5568 18.1146C31.9943 16.7357 36.6693 15.7182 43.4264 15.7182C43.9474 15.7182 44.447 15.9252 44.8154 16.2935C45.1838 16.6619 45.3907 17.1615 45.3907 17.6825V45.9211C45.3907 46.442 45.1838 46.9417 44.8154 47.31C44.447 47.6784 43.9474 47.8854 43.4264 47.8854C37.0739 47.8854 32.9096 48.84 30.0182 49.9989Z" fill="var(--fill-0, #005299)"/>
</svg>
