<svg preserveAspectRatio="none" width="100%" height="100%" overflow="visible" style="display: block;" viewBox="0 0 21.5 21.5" fill="none" xmlns="http://www.w3.org/2000/svg">
<path id="Vector" d="M1.42 17.7L6.35 14.39C7.14 13.86 8.28 13.92 8.99 14.53L9.32 14.82C10.1 15.49 11.36 15.49 12.14 14.82L16.3 11.25C17.08 10.58 18.34 10.58 19.12 11.25L20.75 12.65M7.75 20.75H13.75C18.75 20.75 20.75 18.75 20.75 13.75V7.75C20.75 2.75 18.75 0.75 13.75 0.75H7.75C2.75 0.75 0.75 2.75 0.75 7.75V13.75C0.75 18.75 2.75 20.75 7.75 20.75ZM9.75 6.75C9.75 7.85457 8.85457 8.75 7.75 8.75C6.64543 8.75 5.75 7.85457 5.75 6.75C5.75 5.64543 6.64543 4.75 7.75 4.75C8.85457 4.75 9.75 5.64543 9.75 6.75Z" stroke="var(--stroke-0, #64748B)" stroke-width="1.5" stroke-linecap="round" stroke-linejoin="round"/>
</svg>
