<svg preserveAspectRatio="none" width="100%" height="100%" overflow="visible" style="display: block;" viewBox="0 0 210.797 39.306" fill="none" xmlns="http://www.w3.org/2000/svg">
<g id="Group">
<path id="Vector" d="M20.3721 28.1198C20.3721 29.6063 19.3437 30.8327 17.7766 30.8327C16.2096 30.8327 15.1811 29.5692 15.1811 28.0827V27.8101C13.8834 29.7922 11.6919 31.0185 9.05972 31.0185C3.12193 31.0185 0 26.0016 0 20.6625C0 15.3234 3.1709 10.3065 9.05972 10.3065C11.3859 10.3065 13.663 11.2975 14.9975 13.5149V2.71289C14.9975 1.22637 16.2096 0 17.6787 0C19.1478 0 20.3599 1.22637 20.3599 2.71289V28.1198H20.3721ZM10.235 26.398C13.3202 26.398 15.0098 23.6851 15.0098 20.6625C15.0098 17.6399 13.2713 14.9147 10.235 14.9147C7.1988 14.9147 5.36237 17.4913 5.36237 20.6625C5.36237 23.8337 7.14983 26.398 10.235 26.398Z" fill="var(--fill-0, #005BA9)"/>
<path id="Vector_2" d="M27.4975 1.48636C29.1993 1.48636 30.5337 2.849 30.5337 4.55849C30.5337 6.26797 29.1993 7.63061 27.4975 7.63061C25.7957 7.63061 24.4613 6.26797 24.4613 4.55849C24.4613 2.849 25.7957 1.48636 27.4975 1.48636ZM24.8163 13.1926C24.8163 11.7061 26.0161 10.4798 27.4975 10.4798C28.9789 10.4798 30.1787 11.6937 30.1787 13.1926V28.1073C30.1787 29.5938 28.9666 30.8202 27.4975 30.8202C26.0283 30.8202 24.8163 29.6062 24.8163 28.1073V13.1926Z" fill="var(--fill-0, #005BA9)"/>
<path id="Vector_3" d="M43.0213 39.2811C40.3401 39.2811 37.7568 38.5131 36.0061 37.6088C35.1124 37.1504 34.5737 36.3452 34.5737 35.4409C34.5737 34.0411 35.5164 33.4465 36.7162 33.4465C37.5732 33.4465 38.3323 33.8058 39.3117 34.2146C40.2421 34.5738 41.4052 34.9826 43.107 34.9826C47.0002 34.9826 48.3347 33.2236 48.3347 29.5568V26.9802C47.0002 29.1976 44.723 30.1886 42.3969 30.1886C36.4958 30.1886 33.3372 25.5804 33.3372 20.2414C33.3372 14.9023 36.4591 10.2941 42.3969 10.2941C45.0291 10.2941 47.2206 11.5205 48.5183 13.5025V13.23C48.5183 11.6939 49.5467 10.4676 51.1138 10.4676C52.6809 10.4676 53.7093 11.6939 53.7093 13.1804V29.2224C53.7093 35.6887 50.318 39.2563 43.0335 39.2563M43.56 25.5804C46.5962 25.5804 48.3347 23.0905 48.3347 20.2538C48.3347 17.417 46.6329 14.9147 43.56 14.9147C40.487 14.9147 38.6873 17.2188 38.6873 20.2538C38.6873 23.2887 40.4748 25.5804 43.56 25.5804Z" fill="var(--fill-0, #005BA9)"/>
<path id="Vector_4" d="M60.8348 1.48636C62.5365 1.48636 63.871 2.849 63.871 4.55849C63.871 6.26797 62.5365 7.63061 60.8348 7.63061C59.133 7.63061 57.7985 6.26797 57.7985 4.55849C57.7985 2.849 59.133 1.48636 60.8348 1.48636ZM58.1536 13.1926C58.1536 11.7061 59.3656 10.4798 60.8348 10.4798C62.3039 10.4798 63.516 11.6937 63.516 13.1926V28.1073C63.516 29.5938 62.3039 30.8202 60.8348 30.8202C59.3656 30.8202 58.1536 29.6062 58.1536 28.1073V13.1926Z" fill="var(--fill-0, #005BA9)"/>
<path id="Vector_5" d="M70.6289 15.3729H67.6294C66.3807 15.3729 65.438 14.3819 65.438 13.1059C65.438 11.83 66.3684 10.8514 67.6294 10.8514H70.6289V5.23982C70.6289 3.75331 71.8287 2.52694 73.3101 2.52694C74.7915 2.52694 75.9913 3.75331 75.9913 5.23982V10.8514H79.4805C80.7293 10.8514 81.721 11.8424 81.721 13.1059C81.721 14.3695 80.7415 15.3729 79.4805 15.3729H75.9913V28.1197C75.9913 29.6062 74.7793 30.8326 73.3101 30.8326C71.841 30.8326 70.6289 29.6062 70.6289 28.1197V15.3729Z" fill="var(--fill-0, #005BA9)"/>
<path id="Vector_6" d="M102.522 28.12C102.522 29.6065 101.493 30.8328 99.9262 30.8328C98.3591 30.8328 97.3307 29.5693 97.3307 28.0828V27.7607C96.033 29.879 93.8415 31.0187 91.2093 31.0187C85.2715 31.0187 82.1373 26.0017 82.1373 20.6626C82.1373 15.3236 85.3082 10.3066 91.2093 10.3066C93.5354 10.3066 95.8493 11.2976 97.1471 13.515V13.1929C97.1471 11.7064 98.3591 10.48 99.8283 10.48C101.297 10.48 102.509 11.7064 102.509 13.1929V28.1076L102.522 28.12ZM92.3723 26.3981C95.4576 26.3981 97.1471 23.6852 97.1471 20.6626C97.1471 17.6401 95.4086 14.9148 92.3723 14.9148C89.3361 14.9148 87.4997 17.4914 87.4997 20.6626C87.4997 23.8339 89.2871 26.3981 92.3723 26.3981Z" fill="var(--fill-0, #005BA9)"/>
<path id="Vector_7" d="M107.003 2.71289C107.003 1.22637 108.202 0 109.684 0C111.165 0 112.365 1.21399 112.365 2.71289V28.1198C112.365 29.6063 111.153 30.8327 109.684 30.8327C108.215 30.8327 107.003 29.6187 107.003 28.1198V2.71289Z" fill="var(--fill-0, #005BA9)"/>
<path id="Vector_8" d="M116.797 13.2054C116.797 11.7065 117.825 10.4925 119.392 10.4925C120.959 10.4925 121.988 11.756 121.988 13.2549V13.5274C123.286 11.533 125.477 10.3191 128.109 10.3191C134.047 10.3191 137.169 15.336 137.169 20.6751C137.169 26.0141 133.998 31.0311 128.109 31.0311C125.783 31.0311 123.506 30.0401 122.171 27.8227V36.5931C122.171 38.092 120.959 39.306 119.49 39.306C118.021 39.306 116.809 38.092 116.809 36.5931V13.2302L116.797 13.2054ZM126.934 14.9149C123.849 14.9149 122.159 17.6277 122.159 20.6503C122.159 23.6729 123.898 26.3982 126.934 26.3982C129.97 26.3982 131.807 23.8215 131.807 20.6503C131.807 17.4791 130.019 14.9149 126.934 14.9149Z" fill="var(--fill-0, #005BA9)"/>
<path id="Vector_9" d="M151.126 15.1872C147.955 15.1872 145.898 17.4046 145.898 21.0589V28.1199C145.898 29.6064 144.686 30.8328 143.217 30.8328C141.748 30.8328 140.499 29.6064 140.499 28.1199V13.2424C140.499 11.6196 141.613 10.4799 143.217 10.4799C144.698 10.4799 145.898 11.7435 145.898 13.2424V13.7379C146.841 11.5701 148.53 10.2941 151.126 10.2941C152.693 10.2941 153.538 11.3842 153.538 12.7345C153.538 14.0847 152.558 15.1748 151.126 15.1748" fill="var(--fill-0, #005BA9)"/>
<path id="Vector_10" d="M171.351 22.4217H159.463C159.732 24.7753 161.202 26.7202 164.287 26.7202C165.989 26.7202 167.372 26.2247 168.4 25.4071C169.025 24.9116 169.563 24.5028 170.372 24.5028C171.706 24.5028 172.514 25.3575 172.514 26.4848C172.514 27.7483 171.535 28.6155 170.592 29.1977C169.123 30.1515 167.152 31.0063 164.066 31.0063C157.37 31.0063 153.88 26.299 153.88 20.6502C153.88 14.6794 158.129 10.3066 163.981 10.3066C169.833 10.3066 173.273 14.729 173.273 20.6502C173.273 21.505 172.734 22.4093 171.351 22.4093M163.981 14.6423C161.52 14.6423 159.83 16.265 159.561 18.5815H168.18C167.776 16.5004 166.356 14.6423 163.981 14.6423Z" fill="var(--fill-0, #005BA9)"/>
<path id="Vector_11" d="M189.495 16.228C188.773 16.228 187.977 15.7325 187.132 15.3733C185.92 14.8778 184.941 14.6548 183.827 14.6548C182.174 14.6548 181.06 15.0636 181.06 16.1413C181.06 17.219 181.904 17.6774 184.769 18.4454C189.018 19.6222 192.054 20.9353 192.054 24.9613C192.054 28.5785 189.066 31.0188 184.01 31.0188C181.243 31.0188 178.648 30.2508 176.946 28.9872C176.101 28.3555 175.783 27.5379 175.783 26.6831C175.783 25.6426 176.677 24.9241 177.742 24.9241C178.636 24.9241 179.223 25.2833 179.848 25.6921C180.79 26.2744 182.259 27.0424 184.133 27.0424C185.822 27.0424 186.948 26.4602 186.948 25.4196C186.948 24.3791 185.92 23.8836 183.288 23.1651C177.619 21.629 175.954 19.3621 175.954 16.2032C175.954 13.0444 178.685 10.3315 183.949 10.3315C185.651 10.3315 187.291 10.6536 188.822 11.3721C190.389 12.0906 191.552 13.0444 191.552 14.2584C191.552 15.3857 190.976 16.2528 189.495 16.2528" fill="var(--fill-0, #005BA9)"/>
<path id="Vector_12" d="M208.239 16.228C207.516 16.228 206.721 15.7325 205.876 15.3733C204.664 14.8778 203.684 14.6548 202.57 14.6548C200.918 14.6548 199.803 15.0636 199.803 16.1413C199.803 17.219 200.648 17.6774 203.513 18.4454C207.749 19.6222 210.797 20.9353 210.797 24.9613C210.797 28.5785 207.798 31.0188 202.754 31.0188C199.987 31.0188 197.392 30.2508 195.69 28.9872C194.845 28.3555 194.527 27.5379 194.527 26.6831C194.527 25.6426 195.42 24.9241 196.486 24.9241C197.379 24.9241 197.967 25.2833 198.591 25.6921C199.534 26.2744 201.003 27.0424 202.876 27.0424C204.578 27.0424 205.692 26.4602 205.692 25.4196C205.692 24.3791 204.664 23.8836 202.032 23.1651C196.363 21.629 194.71 19.3621 194.71 16.2032C194.71 13.0444 197.428 10.3315 202.705 10.3315C204.407 10.3315 206.059 10.6536 207.578 11.3721C209.145 12.0906 210.308 13.0444 210.308 14.2584C210.308 15.3857 209.732 16.2528 208.251 16.2528" fill="var(--fill-0, #005BA9)"/>
</g>
</svg>
