<svg preserveAspectRatio="none" width="100%" height="100%" overflow="visible" style="display: block;" viewBox="0 0 53.9788 54.6169" fill="none" xmlns="http://www.w3.org/2000/svg">
<path id="Vector" d="M49.5591 4.47192C46.7065 1.58561 42.9112 0 38.8833 0C30.5582 0 23.7756 6.86272 23.7756 15.2863L23.8001 39.343C23.8001 44.1865 19.8946 48.1258 15.1077 48.1258C12.7815 48.1258 10.6023 47.2091 8.96178 45.5492C7.32123 43.8892 6.41526 41.6842 6.41526 39.3306C6.41526 36.977 7.32123 34.772 8.96178 33.112C10.6023 31.4521 12.7815 30.5354 15.1077 30.5354H16.9319C18.6214 30.4735 19.9926 29.0737 19.9926 27.3518V27.2403C19.9926 25.5184 18.6214 24.1062 16.9319 24.0567H15.1077C11.0675 24.0567 7.2845 25.6423 4.41967 28.5286C1.56709 31.4149 0 35.2551 0 39.3306C0 43.4061 1.56709 47.2463 4.41967 50.1326C7.27226 53.0189 11.0675 54.6169 15.1077 54.6169C23.4328 54.6169 30.2154 47.7665 30.2154 39.343L30.1909 15.2863C30.1909 10.4427 34.0841 6.4911 38.8833 6.4911C41.2095 6.4911 43.3887 7.40778 45.0292 9.06772C46.6698 10.7277 47.5758 12.9326 47.5758 15.2863C47.5758 17.6399 46.6698 19.8449 45.0292 21.5049C43.3887 23.1648 41.2095 24.0815 38.8833 24.0815H37.0591C35.3696 24.131 33.9984 25.5432 33.9984 27.2775V27.389C33.9984 29.1108 35.3696 30.523 37.0591 30.5726H38.8833C42.9112 30.5726 46.7065 28.987 49.5591 26.1007C52.4117 23.2143 53.9788 19.3742 53.9788 15.2987C53.9788 11.2232 52.4117 7.383 49.5591 4.4967" fill="var(--fill-0, #005BA9)"/>
</svg>
