<svg preserveAspectRatio="none" width="100%" height="100%" overflow="visible" style="display: block;" viewBox="0 0 210.418 17.2686" fill="none" xmlns="http://www.w3.org/2000/svg">
<g id="Group">
<path id="Vector" d="M12.8305 13.5398C12.1817 13.5398 11.6552 13.0071 11.6552 12.3506V8.74581C11.6552 7.59376 11.1655 6.67708 9.95346 6.67708C8.65572 6.67708 8.19049 7.69286 8.19049 8.74581V12.3506C8.19049 13.0071 7.66405 13.5398 7.01518 13.5398C6.36631 13.5398 5.81538 13.0071 5.81538 12.3506V8.74581C5.81538 7.59376 5.32566 6.67708 4.11362 6.67708C2.80363 6.67708 2.35065 7.69286 2.35065 8.74581V12.3506C2.35065 13.0071 1.8242 13.5398 1.17533 13.5398C0.526459 13.5398 1.60317e-05 13.0071 1.60317e-05 12.3506V5.82234C1.60317e-05 5.1658 0.453002 4.60836 1.17533 4.60836C1.86093 4.60836 2.35065 5.1658 2.35065 5.82234V5.98338C2.84036 5.0667 3.74633 4.53403 4.79922 4.53403C6.04799 4.53403 6.97845 5.10386 7.54162 6.02054C8.15376 5.12863 9.23114 4.53403 10.5656 4.53403C12.9407 4.53403 14.0303 6.1568 14.0303 8.53522V12.3382C14.0303 12.9948 13.4794 13.5274 12.8305 13.5274V13.5398Z" fill="var(--fill-0, #005BA9)"/>
<path id="Vector_2" d="M22.6249 12.3136C22.074 13.2055 21.1803 13.6267 20.1029 13.6267C18.2175 13.6267 17.0422 12.4746 17.0422 10.9138C17.0422 9.10521 18.4134 8.20092 20.2131 8.20092C21.1191 8.20092 22.0128 8.49822 22.5882 9.1176V8.48583C22.5882 7.16036 22.123 6.57814 20.5926 6.57814C19.4785 6.57814 18.7929 7.01171 18.2665 7.01171C17.7033 7.01171 17.2625 6.59053 17.2625 6.04547C17.2625 4.75716 19.8825 4.55896 20.813 4.55896C23.4819 4.55896 24.9511 5.87205 24.9511 8.32479V12.3755C24.9511 13.0321 24.4858 13.5647 23.8002 13.5647C23.1146 13.5647 22.6494 13.0321 22.6494 12.3755V12.3384L22.6249 12.3136ZM20.9354 9.77414C19.9805 9.77414 19.3683 10.2077 19.3683 10.9014C19.3683 11.5951 20.0294 12.0287 20.9354 12.0287C21.8414 12.0287 22.576 11.5332 22.576 10.9014C22.576 10.2696 21.8536 9.77414 20.9354 9.77414Z" fill="var(--fill-0, #005BA9)"/>
<path id="Vector_3" d="M32.8107 6.67708C31.415 6.67708 30.5213 7.64332 30.5213 9.2537V12.3506C30.5213 13.0071 29.9949 13.5398 29.346 13.5398C28.6971 13.5398 28.1462 13.0071 28.1462 12.3506V5.82234C28.1462 5.10386 28.6359 4.60836 29.346 4.60836C29.9949 4.60836 30.5213 5.1658 30.5213 5.82234V6.04531C30.9376 5.09147 31.6721 4.53403 32.8107 4.53403C33.4963 4.53403 33.8636 5.00476 33.8636 5.59937C33.8636 6.19397 33.4351 6.66469 32.8107 6.66469V6.67708Z" fill="var(--fill-0, #005BA9)"/>
<path id="Vector_4" d="M43.9396 12.4126C43.9396 13.032 43.5233 13.5399 42.8377 13.5399C42.5072 13.5399 42.2256 13.3664 42.0297 13.0815L39.4465 9.55105L38.4425 10.3439V12.3507C38.4425 13.0072 37.9161 13.5399 37.2672 13.5399C36.6184 13.5399 36.0919 13.0072 36.0919 12.3507V1.22659C36.0919 0.570051 36.6184 0.012615 37.2672 0.012615C37.9161 0.012615 38.4425 0.570051 38.4425 1.22659V7.65576L42.0297 4.85616C42.2256 4.69512 42.4582 4.6208 42.6908 4.6208C43.3519 4.6208 43.8049 5.1163 43.8049 5.73568C43.8049 6.05775 43.5723 6.30551 43.2907 6.52849L41.1115 8.23797L43.7192 11.8056C43.8539 11.979 43.9151 12.202 43.9151 12.425L43.9396 12.4126Z" fill="var(--fill-0, #005BA9)"/>
<path id="Vector_5" d="M53.6482 9.84831H48.4327C48.5552 10.8765 49.1918 11.7312 50.5507 11.7312C51.2976 11.7312 51.8975 11.5082 52.3505 11.1614C52.6198 10.9384 52.8646 10.765 53.2074 10.765C53.7951 10.765 54.1501 11.1366 54.1501 11.6445C54.1501 12.2019 53.7217 12.5736 53.3054 12.8337C52.6565 13.2549 51.7995 13.6265 50.4406 13.6265C47.5023 13.6265 45.9719 11.5578 45.9719 9.08028C45.9719 6.4665 47.8328 4.53403 50.4038 4.53403C52.9748 4.53403 54.4807 6.47888 54.4807 9.08028C54.4807 9.4519 54.2481 9.84831 53.636 9.84831H53.6482ZM50.4161 6.44172C49.3387 6.44172 48.5919 7.1602 48.4817 8.1636H52.2648C52.0934 7.24692 51.4567 6.44172 50.4283 6.44172H50.4161Z" fill="var(--fill-0, #005BA9)"/>
<path id="Vector_6" d="M58.4107 6.75128H57.1007C56.5498 6.75128 56.1457 6.31771 56.1457 5.76027C56.1457 5.20283 56.562 4.76926 57.1007 4.76926H58.4107V2.30413C58.4107 1.64759 58.9371 1.11492 59.586 1.11492C60.2349 1.11492 60.7613 1.64759 60.7613 2.30413V4.76926H62.2917C62.8426 4.76926 63.2711 5.20283 63.2711 5.76027C63.2711 6.31771 62.8426 6.75128 62.2917 6.75128H60.7613V12.3381C60.7613 12.9946 60.2349 13.5273 59.586 13.5273C58.9371 13.5273 58.4107 12.9946 58.4107 12.3381V6.75128Z" fill="var(--fill-0, #005BA9)"/>
<path id="Vector_7" d="M66.5767 0.669132C67.3235 0.669132 67.9111 1.26373 67.9111 2.01937C67.9111 2.77502 67.3235 3.36963 66.5767 3.36963C65.8298 3.36963 65.2422 2.77502 65.2422 2.01937C65.2422 1.26373 65.8298 0.669132 66.5767 0.669132ZM65.4013 5.80998C65.4013 5.15344 65.9278 4.62078 66.5767 4.62078C67.2255 4.62078 67.752 5.15344 67.752 5.80998V12.3506C67.752 13.0072 67.2255 13.5398 66.5767 13.5398C65.9278 13.5398 65.4013 13.0072 65.4013 12.3506V5.80998Z" fill="var(--fill-0, #005BA9)"/>
<path id="Vector_8" d="M75.3549 6.67708C74.0449 6.67708 73.5185 7.69286 73.5185 8.74581V12.3506C73.5185 13.0071 72.9921 13.5398 72.3432 13.5398C71.6943 13.5398 71.1679 13.0071 71.1679 12.3506V5.82234C71.1679 5.0667 71.6821 4.60836 72.3432 4.60836C73.0043 4.60836 73.5185 5.0667 73.5185 5.82234V5.98338C73.9837 5.11625 74.8285 4.53403 76.0405 4.53403C78.232 4.53403 79.493 6.24352 79.493 8.62193V12.3506C79.493 13.0071 78.9666 13.5398 78.3177 13.5398C77.6688 13.5398 77.1424 13.0071 77.1424 12.3506V8.74581C77.1424 7.59376 76.5792 6.67708 75.3549 6.67708Z" fill="var(--fill-0, #005BA9)"/>
<path id="Vector_9" d="M86.459 17.2438C85.2837 17.2438 84.1451 16.9093 83.3861 16.5129C82.9943 16.3147 82.7617 15.9555 82.7617 15.5591C82.7617 14.9397 83.1779 14.6919 83.7044 14.6919C84.0717 14.6919 84.4145 14.853 84.843 15.0264C85.2592 15.1874 85.7612 15.3609 86.508 15.3609C88.2097 15.3609 88.7974 14.5928 88.7974 12.9825V11.8552C88.2097 12.8214 87.2058 13.2674 86.1897 13.2674C83.6064 13.2674 82.2107 11.2482 82.2107 8.90694C82.2107 6.56568 83.5819 4.5465 86.1897 4.5465C87.3405 4.5465 88.3077 5.07916 88.8709 5.95868V5.83481C88.8709 5.16588 89.3238 4.62083 90.0094 4.62083C90.695 4.62083 91.148 5.1535 91.148 5.81004V12.8462C91.148 15.6829 89.6544 17.2438 86.459 17.2438ZM86.6916 11.2358C88.0261 11.2358 88.7852 10.1457 88.7852 8.89455C88.7852 7.6434 88.0383 6.55329 86.6916 6.55329C85.3449 6.55329 84.5614 7.56907 84.5614 8.89455C84.5614 10.22 85.3449 11.2358 86.6916 11.2358Z" fill="var(--fill-0, #005BA9)"/>
<path id="Vector_10" d="M100.893 5.81004C100.893 5.1535 101.346 4.62083 102.032 4.62083C102.718 4.62083 103.171 5.17827 103.171 5.83481V5.95868C103.734 5.09155 104.701 4.5465 105.852 4.5465C108.459 4.5465 109.831 6.7515 109.831 9.09275C109.831 11.434 108.435 13.639 105.852 13.639C104.836 13.639 103.832 13.2054 103.244 12.2268V16.0794C103.244 16.7359 102.718 17.2686 102.069 17.2686C101.42 17.2686 100.893 16.7359 100.893 16.0794V5.82243V5.81004ZM105.337 6.55329C103.991 6.55329 103.244 7.7425 103.244 9.06797C103.244 10.3934 104.003 11.5827 105.337 11.5827C106.672 11.5827 107.468 10.4554 107.468 9.06797C107.468 7.68056 106.684 6.55329 105.337 6.55329Z" fill="var(--fill-0, #005BA9)"/>
<path id="Vector_11" d="M117.311 6.67708C115.916 6.67708 115.022 7.64332 115.022 9.2537V12.3506C115.022 13.0071 114.495 13.5398 113.847 13.5398C113.198 13.5398 112.647 13.0071 112.647 12.3506V5.82234C112.647 5.10386 113.136 4.60836 113.847 4.60836C114.495 4.60836 115.022 5.1658 115.022 5.82234V6.04531C115.438 5.09147 116.173 4.53403 117.311 4.53403C117.997 4.53403 118.364 5.00476 118.364 5.59937C118.364 6.19397 117.936 6.66469 117.311 6.66469V6.67708Z" fill="var(--fill-0, #005BA9)"/>
<path id="Vector_12" d="M121.78 0.669132C122.527 0.669132 123.114 1.26373 123.114 2.01937C123.114 2.77502 122.527 3.36963 121.78 3.36963C121.033 3.36963 120.445 2.77502 120.445 2.01937C120.445 1.26373 121.033 0.669132 121.78 0.669132ZM120.604 5.80998C120.604 5.15344 121.131 4.62078 121.78 4.62078C122.429 4.62078 122.955 5.15344 122.955 5.80998V12.3506C122.955 13.0072 122.429 13.5398 121.78 13.5398C121.131 13.5398 120.604 13.0072 120.604 12.3506V5.80998Z" fill="var(--fill-0, #005BA9)"/>
<path id="Vector_13" d="M130.558 6.67708C129.248 6.67708 128.722 7.69286 128.722 8.74581V12.3506C128.722 13.0071 128.195 13.5398 127.546 13.5398C126.897 13.5398 126.371 13.0071 126.371 12.3506V5.82234C126.371 5.0667 126.885 4.60836 127.546 4.60836C128.207 4.60836 128.722 5.0667 128.722 5.82234V5.98338C129.187 5.11625 130.032 4.53403 131.256 4.53403C133.447 4.53403 134.708 6.24352 134.708 8.62193V12.3506C134.708 13.0071 134.182 13.5398 133.533 13.5398C132.884 13.5398 132.358 13.0071 132.358 12.3506V8.74581C132.358 7.59376 131.795 6.67708 130.57 6.67708H130.558Z" fill="var(--fill-0, #005BA9)"/>
<path id="Vector_14" d="M139.03 6.75128H137.72C137.169 6.75128 136.765 6.31771 136.765 5.76027C136.765 5.20283 137.181 4.76926 137.72 4.76926H139.03V2.30413C139.03 1.64759 139.556 1.11492 140.205 1.11492C140.854 1.11492 141.381 1.64759 141.381 2.30413V4.76926H142.911C143.462 4.76926 143.89 5.20283 143.89 5.76027C143.89 6.31771 143.462 6.75128 142.911 6.75128H141.381V12.3381C141.381 12.9946 140.854 13.5273 140.205 13.5273C139.556 13.5273 139.03 12.9946 139.03 12.3381V6.75128Z" fill="var(--fill-0, #005BA9)"/>
<path id="Vector_15" d="M160.724 12.3506C160.724 13.0071 160.271 13.5398 159.586 13.5398C158.9 13.5398 158.447 12.9823 158.447 12.3258V12.2019C157.884 13.0691 156.917 13.6141 155.766 13.6141C153.158 13.6141 151.787 11.4091 151.787 9.06786C151.787 6.72661 153.183 4.52162 155.766 4.52162C156.782 4.52162 157.786 4.95519 158.374 5.93381V1.18936C158.374 0.532815 158.9 0.000149479 159.549 0.000149479C160.198 0.000149479 160.724 0.532815 160.724 1.18936V12.3382V12.3506ZM156.268 11.5949C157.615 11.5949 158.362 10.4057 158.362 9.08025C158.362 7.75478 157.602 6.56558 156.268 6.56558C154.934 6.56558 154.138 7.69284 154.138 9.08025C154.138 10.4677 154.921 11.5949 156.268 11.5949Z" fill="var(--fill-0, #005BA9)"/>
<path id="Vector_16" d="M171.204 9.84831H165.989C166.111 10.8765 166.748 11.7312 168.107 11.7312C168.854 11.7312 169.454 11.5082 169.907 11.1614C170.176 10.9384 170.421 10.765 170.764 10.765C171.351 10.765 171.706 11.1366 171.706 11.6445C171.706 12.2019 171.278 12.5736 170.862 12.8337C170.213 13.2549 169.356 13.6265 167.997 13.6265C165.058 13.6265 163.528 11.5578 163.528 9.08028C163.528 6.4665 165.389 4.53403 167.96 4.53403C170.531 4.53403 172.037 6.47888 172.037 9.08028C172.037 9.4519 171.804 9.84831 171.192 9.84831H171.204ZM167.972 6.44172C166.895 6.44172 166.148 7.1602 166.038 8.1636H169.821C169.65 7.24692 169.013 6.44172 167.984 6.44172H167.972Z" fill="var(--fill-0, #005BA9)"/>
<path id="Vector_17" d="M180.619 7.13551C180.301 7.13551 179.958 6.91253 179.578 6.76388C179.052 6.5409 178.623 6.44181 178.134 6.44181C177.411 6.44181 176.922 6.61523 176.922 7.09835C176.922 7.58147 177.289 7.76728 178.55 8.11413C180.411 8.63441 181.745 9.20423 181.745 10.9633C181.745 12.5489 180.435 13.6266 178.219 13.6266C177.007 13.6266 175.869 13.2921 175.122 12.7347C174.755 12.4622 174.608 12.1029 174.608 11.7189C174.608 11.2606 175 10.9509 175.465 10.9509C175.857 10.9509 176.114 11.1119 176.383 11.2854C176.799 11.5455 177.436 11.88 178.268 11.88C179.015 11.88 179.505 11.6198 179.505 11.1615C179.505 10.7031 179.052 10.4925 177.901 10.1705C175.416 9.50154 174.693 8.51053 174.693 7.12312C174.693 5.73571 175.893 4.5465 178.207 4.5465C178.954 4.5465 179.676 4.68277 180.337 5.00484C181.023 5.32692 181.537 5.73571 181.537 6.26837C181.537 6.76388 181.28 7.13551 180.631 7.13551H180.619Z" fill="var(--fill-0, #005BA9)"/>
<path id="Vector_18" d="M185.736 0.669132C186.483 0.669132 187.071 1.26373 187.071 2.01937C187.071 2.77502 186.483 3.36963 185.736 3.36963C184.99 3.36963 184.402 2.77502 184.402 2.01937C184.402 1.26373 184.99 0.669132 185.736 0.669132ZM184.561 5.80998C184.561 5.15344 185.088 4.62078 185.736 4.62078C186.385 4.62078 186.912 5.15344 186.912 5.80998V12.3506C186.912 13.0072 186.385 13.5398 185.736 13.5398C185.088 13.5398 184.561 13.0072 184.561 12.3506V5.80998Z" fill="var(--fill-0, #005BA9)"/>
<path id="Vector_19" d="M193.976 17.2438C192.801 17.2438 191.662 16.9093 190.903 16.5129C190.511 16.3147 190.279 15.9555 190.279 15.5591C190.279 14.9397 190.695 14.6919 191.221 14.6919C191.589 14.6919 191.932 14.853 192.36 15.0264C192.776 15.1874 193.278 15.3609 194.025 15.3609C195.727 15.3609 196.314 14.5928 196.314 12.9825V11.8552C195.727 12.8214 194.723 13.2674 193.707 13.2674C191.124 13.2674 189.728 11.2482 189.728 8.90694C189.728 6.56568 191.099 4.5465 193.707 4.5465C194.858 4.5465 195.825 5.07916 196.388 5.95868V5.83481C196.388 5.16588 196.841 4.62083 197.527 4.62083C198.212 4.62083 198.665 5.1535 198.665 5.81004V12.8462C198.665 15.6829 197.171 17.2438 193.976 17.2438ZM194.221 11.2358C195.555 11.2358 196.314 10.1457 196.314 8.89455C196.314 7.6434 195.568 6.55329 194.221 6.55329C192.874 6.55329 192.078 7.56907 192.078 8.89455C192.078 10.22 192.862 11.2358 194.221 11.2358Z" fill="var(--fill-0, #005BA9)"/>
<path id="Vector_20" d="M206.268 6.67708C204.958 6.67708 204.431 7.69286 204.431 8.74581V12.3506C204.431 13.0071 203.905 13.5398 203.256 13.5398C202.607 13.5398 202.081 13.0071 202.081 12.3506V5.82234C202.081 5.0667 202.595 4.60836 203.256 4.60836C203.917 4.60836 204.431 5.0667 204.431 5.82234V5.98338C204.897 5.11625 205.741 4.53403 206.966 4.53403C209.157 4.53403 210.418 6.24352 210.418 8.62193V12.3506C210.418 13.0071 209.892 13.5398 209.243 13.5398C208.594 13.5398 208.068 13.0071 208.068 12.3506V8.74581C208.068 7.59376 207.504 6.67708 206.28 6.67708H206.268Z" fill="var(--fill-0, #005BA9)"/>
</g>
</svg>
