<svg preserveAspectRatio="none" width="100%" height="100%" overflow="visible" style="display: block;" viewBox="0 0 45.8333 49.9904" fill="none" xmlns="http://www.w3.org/2000/svg">
<g id="Group">
<g id="Vector">
</g>
<path id="Vector_2" d="M22.9167 0C24.97 0 26.9592 0.270417 28.8521 0.776875L23.98 5.64667C23.6104 6.01776 23.2844 6.42988 23.0083 6.875H22.9167C19.7439 6.875 16.6424 7.81583 14.0044 9.57851C11.3664 11.3412 9.31025 13.8466 8.0961 16.7778C6.88194 19.709 6.56426 22.9345 7.18324 26.0462C7.80221 29.158 9.33003 32.0164 11.5735 34.2598C13.817 36.5033 16.6753 38.0311 19.7871 38.6501C22.8989 39.2691 26.1243 38.9514 29.0555 37.7372C31.9868 36.5231 34.4921 34.467 36.2548 31.8289C38.0175 29.1909 38.9583 26.0894 38.9583 22.9167V22.825C39.4014 22.55 39.8101 22.2253 40.1844 21.851L45.0565 16.9812C45.5629 18.8742 45.8333 20.8633 45.8333 22.9167C45.8333 35.5735 35.5735 45.8333 22.9167 45.8333C10.2598 45.8333 0 35.5735 0 22.9167C0 10.2598 10.2598 0 22.9167 0ZM21.9679 11.4973C21.9679 13.4475 21.8717 15.4252 21.9771 17.3731L20.7396 18.6106C20.3139 19.0363 19.9762 19.5417 19.7458 20.0979C19.5155 20.6541 19.3969 21.2502 19.3969 21.8522C19.3969 22.4542 19.5155 23.0503 19.7458 23.6065C19.9762 24.1627 20.3139 24.6681 20.7396 25.0937C21.1653 25.5194 21.6706 25.8571 22.2268 26.0875C22.783 26.3179 23.3791 26.4364 23.9811 26.4364C24.5832 26.4364 25.1793 26.3179 25.7355 26.0875C26.2917 25.8571 26.797 25.5194 27.2227 25.0937L28.4602 23.8562C30.4081 23.9617 32.3835 23.8654 34.336 23.8654C34.155 26.0433 33.355 28.124 32.0302 29.862C30.7055 31.6001 28.9113 32.9231 26.8594 33.675C24.8074 34.4269 22.5833 34.5763 20.4492 34.1056C18.3151 33.635 16.3601 32.5638 14.8148 31.0185C13.2695 29.4732 12.1984 27.5182 11.7277 25.3842C11.257 23.2501 11.4064 21.0259 12.1583 18.9739C12.9102 16.922 14.2332 15.1278 15.9713 13.8031C17.7094 12.4784 19.7901 11.6783 21.9679 11.4973ZM37.8217 0.291042C38.24 0.464473 38.5975 0.757939 38.8491 1.1344C39.1008 1.51085 39.2353 1.95343 39.2356 2.40625V6.6H43.4271C43.8803 6.6001 44.3232 6.73455 44.7 6.98637C45.0768 7.23819 45.3704 7.59606 45.5438 8.01475C45.7173 8.43344 45.7626 8.89414 45.6743 9.33861C45.5859 9.78309 45.3677 10.1914 45.0473 10.5119L36.9417 18.6083C36.512 19.0381 35.9292 19.2797 35.3215 19.2798H29.7917L25.6025 23.4712C25.1725 23.9013 24.5893 24.1428 23.9811 24.1428C23.373 24.1428 22.7898 23.9013 22.3598 23.4712C21.9298 23.0412 21.6882 22.458 21.6882 21.8499C21.6882 21.2418 21.9298 20.6585 22.3598 20.2285L26.5512 16.0417V10.5096C26.551 10.2083 26.6102 9.90988 26.7254 9.63147C26.8406 9.35306 27.0096 9.10011 27.2227 8.88708L35.3237 0.786041C35.6442 0.465362 36.0526 0.246946 36.4973 0.158426C36.9419 0.0699059 37.4028 0.11526 37.8217 0.28875" fill="var(--fill-0, #005299)"/>
</g>
</svg>
