<svg preserveAspectRatio="none" width="100%" height="100%" overflow="visible" style="display: block;" viewBox="0 0 47.8636 43.5417" fill="none" xmlns="http://www.w3.org/2000/svg">
<path id="Vector" d="M2.83615 38.7292L5.90698 40.0125V19.3188L0.338235 32.7479C-0.601348 35.0854 0.475735 37.7667 2.83615 38.7292ZM47.5237 30.25L36.157 2.86458C35.8212 2.03396 35.2494 1.31995 34.5122 0.810833C33.775 0.301717 32.9048 0.019821 32.0091 0C31.4132 0 30.7945 0.0916669 30.1987 0.34375L13.3091 7.33333C12.4939 7.67928 11.795 8.25178 11.2954 8.98292C10.7958 9.71407 10.5164 10.5732 10.4903 11.4583C10.4674 12.0313 10.582 12.6958 10.7882 13.2917L22.2466 40.6771C22.9112 42.4646 24.607 43.5188 26.3945 43.5417C26.9903 43.5417 27.5862 43.4271 28.1591 43.1979L45.0257 36.2083C46.1469 35.7492 47.0399 34.8636 47.5083 33.7463C47.9767 32.629 47.9822 31.3714 47.5237 30.25ZM15.0966 13.75C14.4888 13.75 13.9059 13.5086 13.4761 13.0788C13.0463 12.649 12.8049 12.0661 12.8049 11.4583C12.8049 10.8505 13.0463 10.2677 13.4761 9.83788C13.9059 9.40811 14.4888 9.16667 15.0966 9.16667C16.357 9.16667 17.3882 10.1979 17.3882 11.4583C17.3882 12.7188 16.357 13.75 15.0966 13.75ZM10.5132 38.9583C10.5132 40.1739 10.9961 41.3397 11.8557 42.1992C12.7152 43.0588 13.881 43.5417 15.0966 43.5417H18.4195L10.5132 24.4292V38.9583Z" fill="var(--fill-0, #005299)"/>
</svg>
