<svg preserveAspectRatio="none" width="100%" height="100%" overflow="visible" style="display: block;" viewBox="0 0 45.8333 41.25" fill="none" xmlns="http://www.w3.org/2000/svg">
<path id="Vector" d="M36.6667 9.16667H9.16667V0H36.6667V9.16667ZM36.6667 21.7708C37.316 21.7708 37.8606 21.5508 38.3006 21.1108C38.7406 20.6708 38.9599 20.1269 38.9583 19.4792C38.9568 18.8314 38.7368 18.2875 38.2983 17.8475C37.8599 17.4075 37.316 17.1875 36.6667 17.1875C36.0174 17.1875 35.4735 17.4075 35.035 17.8475C34.5965 18.2875 34.3765 18.8314 34.375 19.4792C34.3735 20.1269 34.5935 20.6716 35.035 21.1131C35.4765 21.5547 36.0204 21.7739 36.6667 21.7708ZM32.0833 36.6667V27.5H13.75V36.6667H32.0833ZM36.6667 41.25H9.16667V32.0833H0V18.3333C0 16.3854 0.668403 14.753 2.00521 13.436C3.34201 12.1191 4.96528 11.4599 6.875 11.4583H38.9583C40.9062 11.4583 42.5394 12.1176 43.8579 13.436C45.1764 14.7545 45.8349 16.3869 45.8333 18.3333V32.0833H36.6667V41.25Z" fill="var(--fill-0, #005299)"/>
</svg>
