<svg preserveAspectRatio="none" width="100%" height="100%" overflow="visible" style="display: block;" viewBox="0 0 19.535 16.198" fill="none" xmlns="http://www.w3.org/2000/svg">
<path id="Icon" d="M6.43778 11.4313L9.77111 8.09795L13.1044 11.4313M9.77111 8.09795V15.598M16.7628 13.423C17.5756 12.9798 18.2176 12.2787 18.5877 11.4301C18.9577 10.5816 19.0346 9.63398 18.8063 8.73686C18.5779 7.83974 18.0573 7.04421 17.3267 6.47582C16.596 5.90744 15.6968 5.59856 14.7711 5.59795H13.7211C13.4689 4.62232 12.9987 3.71656 12.3461 2.94878C11.6934 2.18099 10.8751 1.57116 9.95286 1.16512C9.03057 0.759089 8.02823 0.567418 7.02121 0.604521C6.01418 0.641624 5.02867 0.906536 4.13876 1.37934C3.24885 1.85214 2.4777 2.52054 1.88329 3.33427C1.28889 4.148 0.886684 5.0859 0.706926 6.07745C0.527168 7.069 0.57453 8.08839 0.845454 9.059C1.11638 10.0296 1.60381 10.9262 2.27111 11.6813" stroke="var(--stroke-0, #005299)" stroke-width="1.2" stroke-linecap="round" stroke-linejoin="round"/>
</svg>
