<svg preserveAspectRatio="none" width="100%" height="100%" overflow="visible" style="display: block;" viewBox="0 0 19 19.0001" fill="none" xmlns="http://www.w3.org/2000/svg">
<g id="Group">
<path id="Vector" d="M1.1 6.50007H17.9M1.1 12.5001H17.9M0.5 9.50007C0.5 10.682 0.732792 11.8523 1.18508 12.9442C1.63738 14.0361 2.30031 15.0283 3.13604 15.864C3.97177 16.6998 4.96392 17.3627 6.05585 17.815C7.14778 18.2673 8.3181 18.5001 9.5 18.5001C10.6819 18.5001 11.8522 18.2673 12.9442 17.815C14.0361 17.3627 15.0282 16.6998 15.864 15.864C16.6997 15.0283 17.3626 14.0361 17.8149 12.9442C18.2672 11.8523 18.5 10.682 18.5 9.50007C18.5 7.11312 17.5518 4.82393 15.864 3.13611C14.1761 1.44828 11.8869 0.500067 9.5 0.500067C7.11305 0.500067 4.82387 1.44828 3.13604 3.13611C1.44821 4.82393 0.5 7.11312 0.5 9.50007Z" stroke="var(--stroke-0, #334155)" stroke-linecap="round" stroke-linejoin="round"/>
<path id="Vector_2" d="M9 0.500067C7.31534 3.19968 6.4222 6.31793 6.4222 9.50007C6.4222 12.6822 7.31534 15.8005 9 18.5001M10 0.500067C11.6847 3.19968 12.5778 6.31793 12.5778 9.50007C12.5778 12.6822 11.6847 15.8005 10 18.5001" stroke="var(--stroke-0, #334155)" stroke-linecap="round" stroke-linejoin="round"/>
</g>
</svg>
