<svg preserveAspectRatio="none" width="100%" height="100%" overflow="visible" style="display: block;" viewBox="0 0 16 16" fill="none" xmlns="http://www.w3.org/2000/svg">
<path id="Instagram" d="M8 0C11.1957 0 12.7935 0.000215161 13.9443 0.761719C14.4582 1.10175 14.8983 1.54178 15.2383 2.05566C15.9998 3.20654 16 4.80432 16 8C16 11.1957 15.9998 12.7935 15.2383 13.9443C14.8983 14.4582 14.4582 14.8983 13.9443 15.2383C12.7935 15.9998 11.1957 16 8 16C4.80432 16 3.20654 15.9998 2.05566 15.2383C1.54178 14.8983 1.10175 14.4582 0.761719 13.9443C0.000215161 12.7935 0 11.1957 0 8C0 4.80432 0.000215156 3.20654 0.761719 2.05566C1.10175 1.54178 1.54178 1.10175 2.05566 0.761719C3.20654 0.000215156 4.80432 0 8 0ZM8 3.8584C5.71267 3.8584 3.85851 5.7127 3.8584 8C3.8584 10.2874 5.7126 12.1416 8 12.1416C10.2873 12.1415 12.1416 10.2873 12.1416 8C12.1415 5.71274 10.2873 3.85848 8 3.8584ZM8 5.25977C9.51338 5.25984 10.7401 6.48663 10.7402 8C10.7402 9.51346 9.51344 10.7402 8 10.7402C6.48649 10.7402 5.25977 9.51351 5.25977 8C5.25987 6.48659 6.48656 5.25977 8 5.25977ZM12.3047 2.67676C11.7674 2.677 11.332 3.11308 11.332 3.65039C11.332 4.18771 11.7674 4.62378 12.3047 4.62402C12.8422 4.62402 13.2783 4.18786 13.2783 3.65039C13.2783 3.11293 12.8421 2.67676 12.3047 2.67676Z" fill="var(--fill-0, #065386)"/>
</svg>
