<svg preserveAspectRatio="none" width="100%" height="100%" overflow="visible" style="display: block;" viewBox="0 0 32 32" fill="none" xmlns="http://www.w3.org/2000/svg">
<g id="Group 73">
<rect id="Social Media Icon" width="32" height="32" rx="5.33333" fill="var(--fill-0, #E2E8F0)"/>
<path id="LinkedIn" d="M8.00002 10.151C8.00002 9.63796 8.1802 9.21468 8.54056 8.88119C8.90091 8.54769 9.36939 8.38095 9.94596 8.38095C10.5122 8.38095 10.9704 8.54512 11.3205 8.8735C11.6808 9.21212 11.861 9.65335 11.861 10.1972C11.861 10.6898 11.686 11.1002 11.3359 11.4286C10.9756 11.7672 10.5019 11.9365 9.91508 11.9365H9.89963C9.33335 11.9365 8.87518 11.7672 8.52511 11.4286C8.17504 11.0899 8.00002 10.6641 8.00002 10.151ZM8.20079 23.619V13.3372H11.6294V23.619H8.20079ZM13.529 23.619H16.9575V17.8778C16.9575 17.5187 16.9987 17.2416 17.0811 17.0467C17.2252 16.6978 17.444 16.4027 17.7375 16.1616C18.0309 15.9205 18.399 15.7999 18.8417 15.7999C19.9949 15.7999 20.5714 16.5746 20.5714 18.1241V23.619H24V17.7239C24 16.2052 23.6397 15.0534 22.9189 14.2684C22.1982 13.4834 21.2458 13.0909 20.0618 13.0909C18.7336 13.0909 17.6989 13.6604 16.9575 14.7994V14.8302H16.9421L16.9575 14.7994V13.3372H13.529C13.5496 13.6655 13.5599 14.6865 13.5599 16.4002C13.5599 18.1138 13.5496 20.5201 13.529 23.619Z" fill="var(--fill-0, #065386)"/>
</g>
</svg>
