<svg preserveAspectRatio="none" width="100%" height="100%" overflow="visible" style="display: block;" viewBox="0 0 16 12.9811" fill="none" xmlns="http://www.w3.org/2000/svg">
<path id="Twitter" d="M10.6907 0.00288149V0H11.4409L11.7151 0.0547484C11.8978 0.0902916 12.0637 0.136871 12.2128 0.194501C12.3619 0.252131 12.5062 0.31937 12.6456 0.396206C12.7851 0.473041 12.9116 0.551331 13.0251 0.631047C13.1376 0.709813 13.2386 0.793376 13.3281 0.881737C13.4165 0.971064 13.5546 0.994116 13.7421 0.950893C13.9297 0.907671 14.1317 0.847635 14.3481 0.7708C14.5645 0.693965 14.7785 0.60752 14.9901 0.511465C15.2017 0.415411 15.3306 0.354424 15.3768 0.32849C15.422 0.301606 15.446 0.287199 15.4489 0.285268L15.4518 0.280946L15.4662 0.273742L15.4806 0.266538L15.495 0.259335L15.5095 0.252131L15.5124 0.247809L15.5167 0.244927L15.521 0.242046L15.5239 0.237723L15.5383 0.233401L15.5528 0.23052L15.5499 0.252131L15.5455 0.273742L15.5383 0.295353L15.5311 0.316964L15.5239 0.331372L15.5167 0.345779L15.5095 0.367391C15.5047 0.381798 15.4999 0.401003 15.495 0.42502C15.4902 0.449038 15.4445 0.545078 15.358 0.71317C15.2714 0.881262 15.1632 1.05175 15.0334 1.22464C14.9035 1.39753 14.7871 1.52814 14.6842 1.61652C14.5804 1.70584 14.5116 1.76827 14.4779 1.80382C14.4442 1.84031 14.4034 1.87392 14.3553 1.90467L14.2831 1.95221L14.2687 1.95942L14.2543 1.96662L14.2514 1.97094L14.2471 1.97382L14.2427 1.97671L14.2399 1.98103L14.2254 1.98823L14.211 1.99544L14.2081 1.99976L14.2038 2.00264L14.1995 2.00552L14.1966 2.00984L14.1937 2.01416L14.1894 2.01705L14.185 2.01993L14.1821 2.02425H14.2543L14.6583 1.93781C14.9276 1.88018 15.1849 1.81054 15.4301 1.7289L15.8197 1.59923L15.8629 1.58482L15.8846 1.57762L15.899 1.57041L15.9134 1.56321L15.9279 1.55601L15.9423 1.5488L15.9711 1.54448L16 1.5416V1.57041L15.9928 1.5733L15.9856 1.57762L15.9827 1.58194L15.9784 1.58482L15.974 1.5877L15.9711 1.59203L15.9683 1.59635L15.9639 1.59923L15.9596 1.60211L15.9567 1.60643L15.9538 1.61076L15.9495 1.61364L15.9423 1.62804L15.9351 1.64245L15.9307 1.64533C15.9288 1.64822 15.8678 1.72985 15.7475 1.89026C15.6273 2.05162 15.5624 2.13326 15.5528 2.13519C15.5431 2.13807 15.5297 2.15248 15.5124 2.17841C15.496 2.20529 15.394 2.3124 15.2065 2.4997C15.0189 2.68699 14.8352 2.85363 14.6554 2.99964C14.4746 3.14659 14.3832 3.32716 14.3813 3.54136C14.3784 3.75459 14.3673 3.99568 14.3481 4.26461C14.3288 4.53356 14.2928 4.8241 14.2399 5.13626C14.187 5.44843 14.1052 5.80141 13.9946 6.19521C13.884 6.58901 13.7493 6.97322 13.5906 7.34781C13.4319 7.72241 13.266 8.05858 13.0929 8.35634C12.9197 8.65409 12.761 8.90623 12.6168 9.11273C12.4725 9.31923 12.3258 9.51373 12.1767 9.69623C12.0277 9.87873 11.8391 10.0843 11.6112 10.3129C11.3823 10.5405 11.2572 10.6654 11.2361 10.6875C11.214 10.7086 11.1197 10.7874 10.9533 10.9237C10.7879 11.0611 10.6099 11.1984 10.4195 11.3358C10.23 11.4722 10.0559 11.586 9.8972 11.6773C9.7385 11.7685 9.54711 11.8727 9.32299 11.9899C9.09986 12.108 8.85843 12.2175 8.59874 12.3184C8.33904 12.4192 8.06492 12.5129 7.77638 12.5993C7.48783 12.6858 7.2089 12.753 6.93959 12.801C6.67028 12.8491 6.3649 12.8899 6.02344 12.9235L5.51127 12.9739V12.9811H4.57349V12.9739L4.45086 12.9667C4.36911 12.9619 4.30178 12.9571 4.24887 12.9523C4.19598 12.9475 3.99639 12.9211 3.65014 12.8731C3.30388 12.8251 3.03217 12.777 2.83499 12.729C2.63782 12.681 2.34445 12.5897 1.95491 12.4553C1.56537 12.3208 1.2321 12.1849 0.955095 12.0475C0.679055 11.9111 0.505926 11.8247 0.435708 11.7882C0.366456 11.7527 0.288548 11.7085 0.201984 11.6556L0.0721371 11.5764L0.069266 11.5721L0.0649234 11.5692L0.0605951 11.5663L0.0577096 11.562L0.0432822 11.5548L0.0288548 11.5476L0.0259838 11.5433L0.0216411 11.5404L0.0173129 11.5375L0.0144274 11.5332L0.0115564 11.5289L0.00721371 11.526H0V11.4972L0.0144274 11.5L0.0288548 11.5044L0.0937782 11.5116C0.13706 11.5164 0.254889 11.5236 0.44725 11.5332C0.639625 11.5428 0.844004 11.5428 1.06041 11.5332C1.27683 11.5236 1.49806 11.502 1.72408 11.4683C1.95011 11.4347 2.21702 11.3771 2.5248 11.2955C2.83259 11.2138 3.11537 11.1168 3.37314 11.0044C3.62995 10.8911 3.81269 10.8066 3.92139 10.7509C4.0291 10.6961 4.19357 10.5943 4.41479 10.4454L4.74662 10.2221L4.7495 10.2178L4.75383 10.2149L4.75817 10.212L4.76105 10.2077L4.76393 10.2034L4.76826 10.2005L4.7726 10.1976L4.77547 10.1933L4.7899 10.189L4.80433 10.1861L4.80721 10.1717L4.81154 10.1573L4.81588 10.1544L4.81876 10.1501L4.70334 10.1429C4.6264 10.1381 4.55185 10.1333 4.47971 10.1285C4.40757 10.1237 4.29456 10.102 4.14067 10.0636C3.98678 10.0252 3.82087 9.96757 3.64292 9.89073C3.46499 9.8139 3.29186 9.72264 3.12353 9.61699C2.95522 9.51134 2.83354 9.42344 2.75852 9.35333C2.68447 9.28416 2.58828 9.18621 2.46997 9.05942C2.35263 8.93168 2.25068 8.80056 2.16411 8.6661C2.07755 8.53163 1.99483 8.37649 1.91597 8.20073L1.79621 7.93852L1.789 7.91691L1.78179 7.8953L1.77746 7.88089L1.77457 7.86648L1.79621 7.86936L1.81785 7.87368L1.97656 7.8953C2.08237 7.9097 2.24828 7.9145 2.4743 7.9097C2.70034 7.90491 2.85663 7.8953 2.94319 7.88089C3.02976 7.86648 3.08266 7.85687 3.10189 7.85207L3.13075 7.84487L3.16682 7.83767L3.20289 7.83046L3.20577 7.82614L3.2101 7.82326L3.21444 7.82038L3.21731 7.81605L3.18846 7.80885L3.1596 7.80165L3.13075 7.79444L3.10189 7.78724L3.07304 7.78004C3.05381 7.77524 3.02015 7.76563 2.97205 7.75122C2.92396 7.73681 2.79411 7.68398 2.58251 7.59274C2.37091 7.5015 2.20259 7.41265 2.07755 7.3262C1.9522 7.23951 1.83267 7.14469 1.71975 7.04237C1.60721 6.93864 1.48363 6.80513 1.34896 6.64185C1.21431 6.47857 1.09409 6.28886 0.988278 6.07275C0.882482 5.85664 0.803131 5.65014 0.750225 5.45323C0.697533 5.25748 0.662769 5.05735 0.646362 4.85532L0.620379 4.55276L0.634806 4.55564L0.649234 4.55997L0.663661 4.56717L0.678088 4.57437L0.692516 4.58158L0.706943 4.58878L0.930568 4.68963C1.07966 4.75687 1.26481 4.8145 1.48602 4.86252C1.70725 4.91054 1.8395 4.93697 1.88278 4.94176L1.9477 4.94897H2.07755L2.07468 4.94465L2.07033 4.94176L2.06601 4.93888L2.06312 4.93456L2.06025 4.93024L2.05591 4.92736L2.05158 4.92447L2.04869 4.92015L2.03427 4.91295L2.01984 4.90575L2.01697 4.90142L2.01262 4.89854L2.0083 4.89566L2.00541 4.89134L1.99098 4.88413L1.97656 4.87693L1.97368 4.87261C1.9708 4.87068 1.92944 4.83995 1.84959 4.7804C1.77072 4.71989 1.68801 4.64161 1.60144 4.54556C1.51488 4.4495 1.42831 4.34865 1.34175 4.243C1.25503 4.13711 1.17778 4.02382 1.11091 3.90443C1.04359 3.78437 0.972408 3.63163 0.897385 3.44627C0.823329 3.26185 0.767062 3.076 0.728584 2.8887C0.690121 2.7014 0.66848 2.51651 0.663661 2.33401C0.658857 2.15151 0.663661 1.99544 0.678088 1.86577C0.692516 1.7361 0.721371 1.58962 0.764653 1.42634C0.807935 1.26306 0.870463 1.09017 0.952209 0.907671L1.07484 0.633929L1.08206 0.612318L1.08927 0.590706L1.09361 0.587825L1.09648 0.583503L1.09937 0.57918L1.1037 0.576299L1.10804 0.57918L1.11091 0.583503L1.1138 0.587825L1.11812 0.590706L1.12247 0.593588L1.12534 0.59791L1.12822 0.602232L1.13255 0.605114L1.13977 0.619521L1.14698 0.633929L1.15132 0.63681L1.15419 0.641133L1.34896 0.857245C1.47881 1.00132 1.63271 1.16221 1.81064 1.3399C1.98859 1.51758 2.08717 1.60979 2.1064 1.61652C2.12565 1.6242 2.14968 1.64628 2.17854 1.68279C2.20739 1.71834 2.30358 1.80334 2.46709 1.93781C2.63061 2.07227 2.84461 2.22836 3.10911 2.40605C3.37362 2.58374 3.66697 2.75903 3.98918 2.93192C4.3114 3.10481 4.65766 3.26089 5.02795 3.40016C5.39826 3.53944 5.65795 3.63068 5.80703 3.67391C5.95613 3.71713 6.211 3.77235 6.57169 3.83959C6.93237 3.90683 7.2041 3.95005 7.38684 3.96926C7.56959 3.98846 7.69463 3.99951 7.76195 4.0024L7.86294 4.00528L7.86007 3.98367L7.85573 3.96206L7.82687 3.78196C7.80764 3.6619 7.79802 3.49381 7.79802 3.2777C7.79802 3.06159 7.81485 2.86229 7.84851 2.67979C7.88219 2.49729 7.93268 2.3124 8 2.1251C8.06733 1.93781 8.13322 1.78748 8.19766 1.67415C8.26307 1.56177 8.34867 1.43354 8.45446 1.28947C8.56027 1.14539 8.69733 0.996522 8.86564 0.842837C9.03397 0.689153 9.22633 0.552282 9.44274 0.432224C9.65915 0.312167 9.85874 0.22091 10.0415 0.158482C10.2242 0.0960546 10.3781 0.0552238 10.5032 0.0360187C10.6282 0.0168135 10.6907 0.00576299 10.6907 0.00288149V0.00288149Z" fill="var(--fill-0, #065386)"/>
</svg>
