<svg preserveAspectRatio="none" width="100%" height="100%" overflow="visible" style="display: block;" viewBox="0 0 32 32" fill="none" xmlns="http://www.w3.org/2000/svg">
<g id="Group 73">
<rect id="Social Media Icon" width="32" height="32" rx="5.33333" fill="var(--fill-0, #E2E8F0)"/>
<path id="YouTube" d="M16.3899 22.2044L12.7791 22.1369C11.61 22.1134 10.4379 22.1603 9.29175 21.9167C7.54813 21.5527 7.42461 19.7679 7.29536 18.2708C7.11726 16.166 7.1862 14.0231 7.5223 11.9359C7.71204 10.7648 8.45873 10.0659 9.61347 9.9899C13.5116 9.71392 17.4356 9.74663 21.325 9.87538C21.7358 9.88718 22.1494 9.9517 22.5544 10.0251C24.5538 10.3833 24.6026 12.4059 24.7322 14.1085C24.8614 15.8287 24.8069 17.5577 24.5598 19.2662C24.3616 20.6808 23.9824 21.867 22.3821 21.9816C20.377 22.1313 18.4179 22.2519 16.4071 22.2135C16.4072 22.2044 16.3956 22.2044 16.3899 22.2044ZM14.2671 18.6231C15.7781 17.7365 17.2603 16.8647 18.7627 15.984C17.2488 15.0974 15.7695 14.2256 14.2671 13.345V18.6231Z" fill="var(--fill-0, #065386)"/>
</g>
</svg>
