<svg preserveAspectRatio="none" width="100%" height="100%" overflow="visible" style="display: block;" viewBox="0 0 62 62" fill="none" xmlns="http://www.w3.org/2000/svg">
<g id="fi_8860853">
<path id="Vector" fill-rule="evenodd" clip-rule="evenodd" d="M34.604 3.4215C32.334 2.30395 29.666 2.30394 27.396 3.4215L4.78663 14.5531C1.84891 15.9995 1.84889 20.1672 4.78663 21.6135L27.396 32.745C29.666 33.8628 32.334 33.8629 34.604 32.7453L57.2133 21.6135C60.1511 20.1672 60.1511 15.9995 57.2133 14.5531L34.604 3.4215ZM4.91634 27.4058C5.2761 27.2286 5.6977 27.2286 6.05743 27.4058L27.396 37.9117C29.666 39.0293 32.334 39.0293 34.604 37.9117L55.9426 27.4058C56.3022 27.2286 56.7238 27.2286 57.0837 27.4058L57.2133 27.4696C60.1511 28.916 60.1511 33.0837 57.2133 34.5301L34.604 45.6617C32.334 46.7793 29.666 46.7793 27.396 45.6617L4.78663 34.5301C1.84889 33.0837 1.84891 28.916 4.78663 27.4696L4.91634 27.4058ZM6.05743 40.3227C5.6977 40.1455 5.2761 40.1455 4.91634 40.3227L4.78663 40.3865C1.84891 41.833 1.84889 46.0006 4.78663 47.4471L27.396 58.5786C29.666 59.6962 32.334 59.6962 34.604 58.5786L57.2133 47.4471C60.1511 46.0006 60.1511 41.833 57.2133 40.3865L57.0837 40.3227C56.7238 40.1455 56.3022 40.1455 55.9426 40.3227L34.604 50.8286C32.334 51.9462 29.666 51.9462 27.396 50.8286L6.05743 40.3227Z" fill="var(--fill-0, #005299)"/>
</g>
</svg>
