<svg preserveAspectRatio="none" width="100%" height="100%" overflow="visible" style="display: block;" viewBox="0 0 55.5426 55.5417" fill="none" xmlns="http://www.w3.org/2000/svg">
<g id="Icon">
<path id="Vector" fill-rule="evenodd" clip-rule="evenodd" d="M19.9051 24.7096C19.9051 24.7096 21.1296 27.6572 21.127 27.6572C21.6617 27.9181 22.1784 28.2178 22.6718 28.5484L25.8364 28.1351C26.4796 28.0498 27.1203 28.2927 27.5466 28.7809C28.9235 30.3593 29.9775 32.1858 30.6569 34.1672C30.8661 34.7794 30.7551 35.4563 30.3598 35.9703C30.3598 35.9703 28.4197 38.5072 28.4197 38.5046C28.4611 39.0988 28.4611 39.6955 28.4197 40.2845L30.3598 42.8213C30.7551 43.3354 30.8661 44.0123 30.6569 44.6245C29.9775 46.6059 28.9235 48.4323 27.5466 50.0108C27.1203 50.499 26.4796 50.7418 25.8364 50.6566L22.6718 50.2433C22.1784 50.5739 21.6617 50.8736 21.1296 51.1345L19.9051 54.0821C19.6571 54.6814 19.1249 55.1154 18.4894 55.2394C16.4356 55.6424 14.3251 55.6424 12.2713 55.2394C11.6358 55.1154 11.1036 54.6814 10.8556 54.0821C10.8556 54.0821 9.63115 51.1345 9.63373 51.1345C9.09898 50.8736 8.58231 50.5739 8.0889 50.2433L4.92431 50.6566C4.28106 50.7418 3.6404 50.499 3.21415 50.0108C1.83723 48.4323 0.783229 46.6059 0.103812 44.6245C-0.105438 44.0123 0.00564533 43.3354 0.400895 42.8213C0.400895 42.8213 2.34098 40.2845 2.34098 40.2871C2.29965 39.6929 2.29965 39.0962 2.34098 38.5072L0.400895 35.9703C0.00564533 35.4563 -0.105438 34.7794 0.103812 34.1672C0.783229 32.1858 1.83723 30.3593 3.21415 28.7809C3.6404 28.2927 4.28106 28.0498 4.92431 28.1351L8.0889 28.5484C8.58231 28.2178 9.09898 27.9181 9.63115 27.6572L10.8556 24.7096C11.1036 24.1103 11.6358 23.6763 12.2713 23.5523C14.3251 23.1493 16.4356 23.1493 18.4894 23.5523C19.1249 23.6763 19.6571 24.1103 19.9051 24.7096ZM15.3791 34.5237C12.6924 34.5237 10.5095 36.7066 10.5095 39.3958C10.5095 42.0851 12.6924 44.268 15.3791 44.268C18.0683 44.268 20.2512 42.0851 20.2512 39.3958C20.2512 36.7066 18.0683 34.5237 15.3791 34.5237Z" fill="var(--fill-0, #005299)"/>
<path id="Vector_2" fill-rule="evenodd" clip-rule="evenodd" d="M19.2773 21.0852C19.2644 20.491 19.2799 19.8968 19.329 19.3053L16.6268 15.779C16.2341 15.2623 16.1231 14.5855 16.3323 13.9733C17.2003 11.439 18.5514 9.0985 20.3106 7.08092C20.7369 6.59267 21.3801 6.34983 22.0234 6.4325C22.0234 6.4325 26.428 7.00858 26.428 7.01117C27.1746 6.49192 27.9651 6.03725 28.7866 5.64717L30.489 1.54483C30.7396 0.9455 31.2691 0.5115 31.9072 0.3875C34.5345 -0.129167 37.2366 -0.129167 39.8639 0.3875C40.4994 0.5115 41.0316 0.9455 41.2796 1.54483C41.2796 1.54483 42.9846 5.64717 42.982 5.64717C43.8061 6.03725 44.594 6.49192 45.3431 7.00858L49.7477 6.4325C50.391 6.34983 51.0317 6.59267 51.4579 7.08092C53.2197 9.0985 54.5708 11.439 55.4388 13.9733C55.6481 14.5855 55.537 15.2623 55.1417 15.779C55.1417 15.779 52.4421 19.3053 52.4421 19.3027C52.5171 20.2094 52.5171 21.1213 52.4421 22.0281L55.1417 25.5543C55.537 26.071 55.6481 26.7478 55.4388 27.3601C54.5708 29.8943 53.2197 32.2348 51.4579 34.2524C51.0317 34.7407 50.391 34.9835 49.7477 34.9008C49.7477 34.9008 45.3431 34.3248 45.3431 34.3222C44.5966 34.8414 43.8061 35.2961 42.9846 35.6862L41.2796 39.7885C41.0316 40.3878 40.4994 40.8218 39.8639 40.9458C37.3426 41.4418 34.7515 41.4625 32.225 41.0078L31.0341 39.4501C31.0341 39.4139 31.0341 39.3778 31.0341 39.3416C31.6076 38.5924 32.411 37.5436 32.411 37.5436C33.3306 36.3423 33.589 34.7613 33.1007 33.3302C32.3128 31.0336 31.0883 28.9127 29.4944 27.0837C28.4998 25.9444 27.0015 25.3761 25.5006 25.5724L23.2531 25.8669C23.2221 25.8488 23.1911 25.8308 23.1601 25.8127C22.7984 24.9421 22.2921 23.7202 22.2921 23.7202C21.7496 22.4156 20.631 21.4443 19.2773 21.0852ZM35.8856 14.2445C32.3412 14.2445 29.4634 17.1223 29.4634 20.6667C29.4634 24.211 32.3412 27.0888 35.8856 27.0888C39.4299 27.0888 42.3077 24.211 42.3077 20.6667C42.3077 17.1223 39.4299 14.2445 35.8856 14.2445Z" fill="var(--fill-0, #005299)"/>
</g>
</svg>
