<svg preserveAspectRatio="none" width="100%" height="100%" overflow="visible" style="display: block;" viewBox="0 0 62 62" fill="none" xmlns="http://www.w3.org/2000/svg">
<g id="fi_16490471">
<path id="Vector" d="M61.8292 30.5582C62.0057 29.8663 62.0255 29.1438 61.8872 28.4433C61.7489 27.7428 61.456 27.082 61.0298 26.5091C60.8231 26.1898 60.6013 25.8937 60.3865 25.608C59.9986 25.1418 59.6775 24.624 59.4324 24.0693C59.215 23.5407 58.9406 23.0374 58.6141 22.5684C58.4841 22.3598 58.3129 22.1799 58.1109 22.0397C57.909 21.8996 57.6805 21.8021 57.4396 21.7534L57.433 21.724C57.3923 21.5561 57.3374 21.3924 57.2811 21.2287C57.2433 21.1278 57.2109 21.0248 57.1841 20.9203C56.9762 19.8872 56.4936 18.9291 55.7873 18.147L55.6265 17.9725C55.0473 17.2214 54.262 16.6552 53.3664 16.3429C53.1838 16.2909 53.1644 16.2606 53.128 16.0964C52.9634 15.359 52.7977 14.6221 52.6308 13.8856C52.3602 12.6912 52.0902 11.4968 51.8305 10.3C51.7377 9.68168 51.4635 9.10479 51.0425 8.64248C50.6216 8.18016 50.0728 7.85323 49.4658 7.70314C49.4805 7.19372 49.4174 6.68504 49.2785 6.1947C48.9058 5.03153 48.4455 3.89672 48.0453 2.9403C47.9152 2.65421 47.7089 2.40937 47.4491 2.23253C47.1892 2.05569 46.8858 1.95363 46.5719 1.9375C46.2849 1.95916 46.0073 2.04907 45.7621 2.19972C45.5169 2.35037 45.3113 2.55741 45.1623 2.80361C44.9747 3.12515 44.8155 3.46242 44.6864 3.81159C44.6509 3.90241 44.6147 3.99293 44.5777 4.08314C43.9126 5.46554 43.5591 6.97711 43.5422 8.5111C43.5639 9.93117 43.17 11.3266 42.4088 12.5256C42.385 12.5672 42.3578 12.6068 42.3275 12.6439C42.2672 12.6246 42.2088 12.5999 42.1529 12.5701C41.9279 12.448 41.7098 12.3134 41.4997 12.1671L41.4112 12.1084C40.2017 11.3086 37.4672 9.42167 36.2482 8.56264C36.4138 8.11279 36.5699 7.68707 36.733 7.26138C36.7524 7.20837 36.7699 7.15069 36.7808 7.12705C36.9851 6.88628 37.2013 6.65449 37.4166 6.42224C37.5296 6.29878 37.6436 6.1758 37.759 6.04903C37.886 5.91703 37.9851 5.76082 38.0505 5.58972C38.1158 5.41861 38.1461 5.2361 38.1394 5.05306C38.1327 4.87002 38.0893 4.69019 38.0117 4.52429C37.934 4.35839 37.8238 4.20981 37.6876 4.0874L37.6365 4.03301C37.4955 3.85395 37.3174 3.7076 37.1143 3.60405C36.9113 3.5005 36.6883 3.44222 36.4605 3.43322C36.2303 3.43519 36.0038 3.49075 35.7988 3.59548C35.7054 3.63739 35.6043 3.6596 35.5019 3.66073C35.3996 3.66186 35.2981 3.64188 35.2037 3.60205C34.6087 3.41286 34.0128 3.22209 33.4162 3.02972C32.4616 2.72222 31.5076 2.41482 30.5487 2.11584C30.185 2.00674 29.8046 1.96444 29.4258 1.99098C29.1851 2.00285 28.9526 2.08196 28.7546 2.21932C28.5566 2.35669 28.4011 2.54681 28.3057 2.7681C28.2008 3.02695 28.1876 3.31388 28.2683 3.58125C27.9582 3.56241 27.6469 3.57684 27.3398 3.62427C26.9972 3.68565 26.6739 3.82672 26.3959 4.03609C26.1179 4.24546 25.8931 4.51727 25.7395 4.82956L25.6714 4.93741C25.4401 5.29883 25.1932 5.65022 24.9458 6.00218C24.671 6.39476 24.3857 6.80062 24.1199 7.22352C23.9578 7.49741 23.8781 7.81227 23.8905 8.13031C23.7906 8.12582 23.6905 8.13232 23.5921 8.14968C23.373 7.76995 23.0798 7.43819 22.7299 7.17416C22.3799 6.91013 21.9804 6.71922 21.5552 6.61282C21.0286 6.5071 20.4844 6.52957 19.9684 6.67834C19.4524 6.82711 18.9797 7.09781 18.5903 7.46761C17.8677 8.11266 17.1812 8.79706 16.534 9.51769L16.1409 9.9382C15.8981 10.2077 15.744 10.5454 15.6996 10.9055C15.3039 11.0405 14.9771 11.3256 14.7895 11.6992C14.3925 11.5991 13.9731 11.6395 13.6025 11.8135C13.232 11.9875 12.933 12.2844 12.7564 12.6538C12.5066 13.0988 12.3812 13.6029 12.3932 14.1131C12.4622 15.104 11.1316 16.806 9.97888 17.1996C8.60948 17.6674 7.11994 18.2095 5.43216 18.8556C4.89447 19.0643 4.38678 19.3433 3.92233 19.6853C3.67226 19.8769 3.43478 20.0843 3.21135 20.3064C3.02956 20.4895 2.83428 20.6587 2.62713 20.8125C2.21435 21.0771 1.85217 21.4134 1.55763 21.8054C1.39139 21.7841 1.22257 21.7958 1.06087 21.8399C0.899166 21.884 0.747763 21.9596 0.615347 22.0624C0.48293 22.1651 0.372106 22.293 0.289233 22.4387C0.20636 22.5844 0.153069 22.745 0.132418 22.9113C0.0688491 23.3046 0.0373788 23.7025 0.0383189 24.1009C0.0435787 24.2965 0.0633421 24.4915 0.0974466 24.6842C0.116169 24.7826 0.128484 24.8822 0.134312 24.9822C-0.038218 25.6862 -0.0390698 26.4213 0.131829 27.1257C0.302727 27.8301 0.640372 28.4832 1.11633 29.0298C1.11775 29.0327 1.12012 29.0351 1.12012 29.0379C0.89861 29.2507 0.741279 29.5215 0.666016 29.8193C0.615636 30.1507 0.64328 30.4892 0.746749 30.808C0.850218 31.1268 1.02666 31.417 1.26202 31.6556C1.43211 31.8522 1.5835 32.0643 1.71423 32.289C2.57226 33.9323 3.4062 35.5396 4.20284 37.1431C4.52943 37.818 4.82072 38.5094 5.07553 39.2145C5.15761 39.4374 5.17755 39.6785 5.13322 39.9118C5.0889 40.1452 4.98198 40.3621 4.82389 40.5394C4.66947 40.7527 4.55859 40.9944 4.4976 41.2506C4.43661 41.5067 4.42669 41.7724 4.46843 42.0324C4.51016 42.2925 4.60272 42.5417 4.74081 42.7659C4.87891 42.9902 5.05984 43.185 5.27326 43.3393C5.51126 43.5191 5.76006 43.6842 6.01827 43.8335C7.60003 44.7508 9.14776 44.8236 10.5598 44.0691C10.9477 43.8499 11.3182 43.6014 11.6681 43.3255L11.7929 43.2328C12.7323 42.5365 13.5654 42.0588 14.5809 41.9897C15.4641 41.9301 16.3075 41.7986 17.2384 41.6458C17.6031 41.5984 17.9519 41.4667 18.2569 41.2611C18.5619 41.0555 18.8148 40.7817 18.9956 40.4614C19.2006 40.1091 19.4757 39.8026 19.804 39.5609C20.1322 39.3193 20.5066 39.1476 20.9038 39.0565C22.2955 38.6379 23.6875 38.242 24.7452 37.9439C26.1771 37.6253 27.6407 37.4717 29.1074 37.486C29.4531 37.4795 29.7988 37.4949 30.1424 37.5324C30.202 37.5628 30.256 37.6033 30.3018 37.6521C30.4503 37.8404 30.5828 38.04 30.7166 38.2396C30.8751 38.4775 31.0359 38.715 31.2133 38.9406L31.307 39.0617C31.7 39.4646 31.9773 39.9659 32.1097 40.5129C32.1696 40.8163 32.3242 41.0929 32.5512 41.3029C32.7783 41.5129 33.066 41.6456 33.3732 41.6817C33.8388 41.7124 34.2996 41.5721 34.6692 41.2873C34.875 41.1194 35.1664 40.8336 35.6578 40.3298C35.7496 41.3908 35.8518 42.4807 35.8967 42.6633C35.9296 42.7934 35.9892 42.9153 36.0716 43.0213C36.1541 43.1272 36.2577 43.2148 36.3758 43.2787C36.4939 43.3425 36.6239 43.3811 36.7577 43.392C36.8915 43.4029 37.0262 43.3859 37.153 43.3421C37.163 43.3383 37.645 43.1685 38.1989 42.923C38.2374 43.2314 38.3674 43.5212 38.5721 43.755C38.7517 43.954 38.9847 44.097 39.2434 44.167C39.0576 44.6064 38.9807 45.0841 39.0191 45.5596C39.0486 46.2109 39.2765 46.8377 39.6724 47.3557C40.0682 47.8738 40.6131 48.2583 41.2338 48.4578C41.6761 48.6149 42.1089 48.8027 42.5677 49.0018C42.9192 49.1541 43.2716 49.3064 43.6287 49.4459L43.7138 49.4796C44.118 49.6642 44.5541 49.7689 44.9981 49.788C45.2896 49.789 45.5779 49.7279 45.8439 49.6087C46.0946 49.4952 46.3391 49.3688 46.5766 49.2298C46.6617 49.3377 46.7516 49.446 46.8434 49.5519C47.0353 49.8025 47.2812 50.0066 47.5628 50.1491C47.8445 50.2916 48.1546 50.3688 48.4701 50.375C48.8146 50.3689 49.154 50.2906 49.4663 50.1451C49.6626 50.0562 49.8538 49.9566 50.0391 49.8466C50.1683 49.7694 50.3016 49.6993 50.4384 49.6366C50.9666 49.4028 51.5066 49.1965 52.0561 49.0183C52.328 48.9514 52.606 48.9123 52.8858 48.9015L52.9879 48.8935C53.4529 48.8728 53.8993 48.7053 54.2631 48.4151C54.627 48.1248 54.8895 47.7268 55.013 47.2781C55.1881 46.7098 55.3969 46.1524 55.6383 45.6088C55.7982 45.2706 55.9808 44.9386 56.1747 44.5866C56.4098 44.1604 56.652 43.7196 56.8601 43.2489C57.2915 42.1359 58.0229 41.1641 58.9731 40.4415C59.3965 40.108 59.7229 39.6672 59.9182 39.1648C60.3392 38.2027 60.7446 37.2004 61.1249 36.1867C61.8317 34.5057 62.0759 32.6662 61.832 30.8591C61.8122 30.7598 61.8113 30.6578 61.8292 30.5582Z" fill="var(--fill-0, #005299)"/>
<path id="Vector_2" d="M50.1441 53.0258C49.3869 53.2538 48.9909 53.2075 48.5179 52.7898C48.1725 52.4868 47.7271 52.3226 47.2677 52.3288C46.8082 52.335 46.3674 52.5112 46.0303 52.8234C45.7829 53.0921 45.6181 53.4264 45.5554 53.7863C45.4927 54.1462 45.5349 54.5165 45.6769 54.8531L45.807 55.3308C46.062 56.2679 46.3254 57.2371 46.6168 58.1856C46.9782 59.361 47.7715 60.0625 48.7383 60.0625C49.081 60.0511 49.4172 59.9656 49.7236 59.8118C50.0301 59.658 50.2996 59.4397 50.5136 59.1718C51.6225 58.0302 52.2639 56.5149 52.3115 54.9241C52.3332 54.6494 52.299 54.3732 52.211 54.1121C52.1229 53.8511 51.9829 53.6106 51.7992 53.4052C51.5861 53.194 51.3182 53.0465 51.0258 52.9795C50.7333 52.9124 50.428 52.9285 50.1441 53.0258Z" fill="var(--fill-0, #005299)"/>
</g>
</svg>
