<svg preserveAspectRatio="none" width="100%" height="100%" overflow="visible" style="display: block;" viewBox="0 0 52.9759 61.9999" fill="none" xmlns="http://www.w3.org/2000/svg">
<g id="Group">
<path id="Vector" d="M52.7343 52.6796C52.7343 52.6796 45.8528 40.8526 44.6185 38.7314C46.0229 38.303 47.5189 37.9246 48.1406 36.8513C49.1765 35.0629 47.3325 32.1291 47.8167 30.2122C48.3155 28.2393 51.26 26.5321 51.26 24.5267C51.26 22.5729 48.2158 20.2904 47.7167 18.3291C47.2291 16.4125 49.0676 13.4755 48.0283 11.6893C46.989 9.90284 43.5272 10.0496 42.1022 8.67839C40.636 7.26729 40.6405 3.81477 38.8721 2.86912C37.0964 1.91995 34.2105 3.83822 32.2389 3.38383C30.2898 2.93463 28.5485 0 26.5126 0C24.4465 0 21.1604 3.32887 20.645 3.44867C18.6745 3.90675 15.7849 1.99317 14.0111 2.94636C12.2443 3.89519 12.2551 7.34805 10.7916 8.7615C9.36894 10.1352 5.90703 9.99483 4.87091 11.7833C3.83495 13.5713 5.679 16.5045 5.19495 18.4224C4.70956 20.3452 1.6625 22.2935 1.6625 24.5172C1.6625 26.5227 4.61439 28.2245 5.1162 30.1964C5.60394 32.113 3.76542 35.0497 4.80472 36.8366C5.37054 37.8092 6.6543 38.2085 7.93639 38.5923C8.08601 38.6371 8.369 38.8045 8.17733 39.0838C7.30021 40.5977 0.24051 52.7818 0.24051 52.7818C-0.321116 53.7509 0.134954 54.5816 1.25368 54.6287L6.7297 54.857C7.84843 54.9041 9.25182 55.7171 9.84897 56.6642L12.771 61.301C13.3682 62.2481 14.3157 62.2304 14.8771 61.2614C14.8771 61.2614 23.053 47.1461 23.0564 47.142C23.2204 46.9504 23.3853 46.9897 23.4642 47.0568C24.3588 47.8184 25.6058 48.5783 26.6466 48.5783C27.6673 48.5783 28.6125 47.863 29.5474 47.0653C29.6235 47.0005 29.8086 46.8676 29.944 47.1434C29.9462 47.1477 38.1131 61.1859 38.1131 61.1859C38.676 62.1536 39.6237 62.1701 40.219 61.2217L43.1328 56.5794C43.7283 55.6316 45.1302 54.8155 46.2489 54.7667L51.7244 54.5281C52.8427 54.479 53.2972 53.6472 52.7343 52.6796ZM35.5624 39.9825C29.5079 43.5049 22.2404 43.1274 16.6895 39.6261C8.55582 34.4162 5.87955 23.6387 10.7692 15.1994C15.7145 6.66277 26.5857 3.65057 35.1992 8.34178C35.2444 8.36641 35.2892 8.39188 35.3341 8.41701C35.3979 8.45237 35.4616 8.48822 35.5251 8.52441C38.1824 10.0565 40.4867 12.28 42.1368 15.1161C47.1797 23.7845 44.2306 34.9396 35.5624 39.9825Z" fill="var(--fill-0, #005299)"/>
<path id="Vector_2" d="M34.1779 11.0755C34.1527 11.0609 34.1273 11.0473 34.1021 11.0329C29.5009 8.36991 23.6363 8.17521 18.7212 11.0348C11.4275 15.2781 8.94558 24.6641 13.1889 31.9577C14.4838 34.1834 16.2581 35.9601 18.3052 37.2352C18.4793 37.3454 18.6554 37.4538 18.8353 37.558C26.137 41.7881 35.5179 39.2893 39.7479 31.988C43.9777 24.6864 41.4795 15.3056 34.1779 11.0755ZM36.0045 23.0119L33.4478 25.5038C32.656 26.2756 32.1611 27.7989 32.3482 28.8888L32.9517 32.4076C33.1387 33.4975 32.491 33.9681 31.5121 33.4536L28.352 31.7921C27.3732 31.2776 25.7716 31.2776 24.7927 31.7921L21.6328 33.4536C20.6539 33.9681 20.006 33.4975 20.193 32.4076L20.7965 28.8888C20.9835 27.7989 20.4886 26.2756 19.6967 25.5038L17.1403 23.0119C16.3482 22.2402 16.5959 21.4785 17.6901 21.3193L21.2231 20.8059C22.3174 20.6469 23.6132 19.7055 24.1026 18.7139L25.6826 15.5125C26.172 14.521 26.9729 14.521 27.4621 15.5125L29.0423 18.7139C29.5317 19.7055 30.8274 20.6469 31.9218 20.8059L35.4547 21.3193C36.5488 21.4785 36.7963 22.2402 36.0045 23.0119Z" fill="var(--fill-0, #005299)"/>
</g>
</svg>
