<svg preserveAspectRatio="none" width="100%" height="100%" overflow="visible" style="display: block;" viewBox="0 0 62 62" fill="none" xmlns="http://www.w3.org/2000/svg">
<g id="fi_2214024">
<path id="Vector" d="M50.0873 23.9049C49.9746 23.7061 49.8113 23.5407 49.6138 23.4257C49.4164 23.3106 49.192 23.25 48.9635 23.25H32.0427L34.8795 1.57486C34.91 1.28478 34.8419 0.992885 34.6863 0.746188C34.5306 0.49949 34.2965 0.312341 34.0216 0.214874C33.7467 0.117407 33.447 0.115294 33.1707 0.208873C32.8945 0.302453 32.6577 0.486281 32.4987 0.73076L11.9211 36.7818C11.8008 36.9775 11.7348 37.2018 11.7301 37.4315C11.7253 37.6612 11.7819 37.888 11.894 38.0886C12.0061 38.2891 12.1696 38.4561 12.3678 38.5724C12.566 38.6887 12.7915 38.75 13.0213 38.75H29.6893L27.4411 60.4578C27.419 60.7468 27.4943 61.035 27.6548 61.2764C27.8154 61.5178 28.0521 61.6986 28.3273 61.79C28.6024 61.8813 28.9002 61.8781 29.1733 61.7807C29.4464 61.6833 29.679 61.4973 29.8343 61.2524L50.0718 25.2053C50.1891 25.0092 50.2524 24.7856 50.2551 24.5572C50.2578 24.3287 50.1999 24.1036 50.0873 23.9049Z" fill="var(--fill-0, #005299)"/>
</g>
</svg>
