<svg preserveAspectRatio="none" width="100%" height="100%" overflow="visible" style="display: block;" viewBox="0 0 41.25 48.125" fill="none" xmlns="http://www.w3.org/2000/svg">
<path id="Vector" d="M20.625 48.125C26.0951 48.125 31.3411 45.952 35.2091 42.0841C39.077 38.2161 41.25 32.9701 41.25 27.5C35.7799 27.5 30.5339 29.673 26.6659 33.5409C22.798 37.4089 20.625 42.6549 20.625 48.125ZM5.95833 21.1979C5.95732 22.2432 6.24228 23.2688 6.78237 24.1637C7.32245 25.0587 8.09708 25.7888 9.02236 26.275C9.94764 26.7613 10.9883 26.9851 12.0317 26.9223C13.0751 26.8595 14.0814 26.5125 14.9417 25.9188L14.8958 26.3542C14.8958 27.8736 15.4994 29.3309 16.5739 30.4053C17.6483 31.4797 19.1055 32.0833 20.625 32.0833C22.1445 32.0833 23.6017 31.4797 24.6761 30.4053C25.7506 29.3309 26.3542 27.8736 26.3542 26.3542L26.3083 25.9188C27.225 26.5604 28.3479 26.9271 29.5625 26.9271C31.082 26.9271 32.5392 26.3235 33.6136 25.2491C34.6881 24.1746 35.2917 22.7174 35.2917 21.1979C35.2917 18.9063 33.9396 16.9583 32.0146 16.0417C33.9396 15.125 35.2917 13.1771 35.2917 10.8854C35.2927 9.84015 35.0077 8.81453 34.4676 7.9196C33.9276 7.02468 33.1529 6.29457 32.2276 5.80832C31.3024 5.32208 30.2617 5.09823 29.2183 5.16103C28.1749 5.22383 27.1686 5.57087 26.3083 6.16458L26.3542 5.72917C26.3542 4.2097 25.7506 2.75246 24.6761 1.67803C23.6017 0.603607 22.1445 0 20.625 0C19.1055 0 17.6483 0.603607 16.5739 1.67803C15.4994 2.75246 14.8958 4.2097 14.8958 5.72917L14.9417 6.16458C14.025 5.52292 12.9021 5.15625 11.6875 5.15625C10.168 5.15625 8.71079 5.75986 7.63637 6.83428C6.56194 7.90871 5.95833 9.36595 5.95833 10.8854C5.95833 13.1771 7.31042 15.125 9.23542 16.0417C7.31042 16.9583 5.95833 18.9063 5.95833 21.1979ZM20.625 10.3125C22.1445 10.3125 23.6017 10.9161 24.6761 11.9905C25.7506 13.065 26.3542 14.5222 26.3542 16.0417C26.3542 17.5611 25.7506 19.0184 24.6761 20.0928C23.6017 21.1672 22.1445 21.7708 20.625 21.7708C19.1055 21.7708 17.6483 21.1672 16.5739 20.0928C15.4994 19.0184 14.8958 17.5611 14.8958 16.0417C14.8958 14.5222 15.4994 13.065 16.5739 11.9905C17.6483 10.9161 19.1055 10.3125 20.625 10.3125ZM0 27.5C0 32.9701 2.17298 38.2161 6.04092 42.0841C9.90886 45.952 15.1549 48.125 20.625 48.125C20.625 42.6549 18.452 37.4089 14.5841 33.5409C10.7161 29.673 5.47009 27.5 0 27.5Z" fill="var(--fill-0, #005299)"/>
</svg>
