<svg preserveAspectRatio="none" width="100%" height="100%" overflow="visible" style="display: block;" viewBox="0 0 44.6875 44.6875" fill="none" xmlns="http://www.w3.org/2000/svg">
<path id="Vector" d="M34.4621 0.130625C32.8648 -1.7928e-07 30.8802 0 28.3777 0H16.3098C13.8073 0 11.8227 -1.7928e-07 10.2254 0.130625C8.58917 0.263541 7.20729 0.543125 5.94458 1.18479C3.8958 2.22905 2.23035 3.8953 1.18708 5.94458C0.543125 7.205 0.263541 8.58917 0.130625 10.2254C0.0252082 11.5088 0.00458333 13.0442 0 14.8958H44.6875C44.6829 13.0442 44.6623 11.511 44.5569 10.2254C44.424 8.58917 44.1444 7.20729 43.5027 5.94458C42.4591 3.89615 40.7936 2.23074 38.7452 1.18708C37.4802 0.543125 36.0983 0.263541 34.4621 0.130625ZM44.5569 34.4621C44.6875 32.8648 44.6875 30.8802 44.6875 28.3777V18.3333H17.1875V44.6875H28.3777C30.8802 44.6875 32.8648 44.6875 34.4621 44.5569C36.0983 44.424 37.4802 44.1444 38.7452 43.5027C40.7928 42.4587 42.4574 40.7933 43.5004 38.7452C44.1444 37.4802 44.424 36.0983 44.5569 34.4621ZM5.94458 43.5004C7.205 44.1444 8.58917 44.424 10.2254 44.5569C11.2338 44.6394 12.3979 44.6715 13.75 44.6806V18.3333H0V28.3777C0 30.8802 -1.7928e-07 32.8648 0.130625 34.4621C0.263541 36.0983 0.543125 37.4802 1.18479 38.7452C2.22944 40.7931 3.89565 42.4577 5.94458 43.5004Z" fill="var(--fill-0, #005299)"/>
</svg>
