<svg preserveAspectRatio="none" width="100%" height="100%" overflow="visible" style="display: block;" viewBox="0 0 45.8333 43.5417" fill="none" xmlns="http://www.w3.org/2000/svg">
<path id="Vector" d="M43.0833 29.7917V26.3542C43.0833 23.1458 39.875 20.625 36.6667 20.625C33.4583 20.625 30.25 23.1458 30.25 26.3542V29.7917C28.875 29.7917 27.5 31.1667 27.5 32.5417V40.5625C27.5 42.1667 28.875 43.5417 30.25 43.5417H42.8542C44.4583 43.5417 45.8333 42.1667 45.8333 40.7917V32.7708C45.8333 31.1667 44.4583 29.7917 43.0833 29.7917ZM40.1042 29.7917H33.2292V26.3542C33.2292 24.5208 34.8333 23.375 36.6667 23.375C38.5 23.375 40.1042 24.5208 40.1042 26.3542V29.7917ZM4.58333 0C2.0625 0 0 2.0625 0 4.58333V36.6667C0 37.8822 0.482885 39.048 1.34243 39.9076C2.20197 40.7671 3.36776 41.25 4.58333 41.25H22.9854C22.9167 41.0208 22.9167 40.7917 22.9167 40.5625V34.375H4.58333L12.6042 24.0625L18.3333 30.9375L26.3542 20.625L26.9729 21.4729C28.8979 18.0813 32.7021 16.0417 36.6667 16.0417C38.2479 16.0417 39.8062 16.4083 41.25 17.0042V4.58333C41.25 3.36776 40.7671 2.20197 39.9076 1.34243C39.048 0.482885 37.8822 0 36.6667 0H4.58333Z" fill="var(--fill-0, #005299)"/>
</svg>
