<svg preserveAspectRatio="none" width="100%" height="100%" overflow="visible" style="display: block;" viewBox="0 0 50.4167 32.0833" fill="none" xmlns="http://www.w3.org/2000/svg">
<path id="Vector" d="M4.58333 32.0833C3.32292 32.0833 2.24431 31.6349 1.3475 30.7381C0.450695 29.8413 0.00152778 28.7619 0 27.5V4.58333C0 3.32292 0.449167 2.24431 1.3475 1.3475C2.24583 0.450694 3.32444 0.00152778 4.58333 0H27.5C28.7604 0 29.8398 0.449166 30.7381 1.3475C31.6365 2.24583 32.0849 3.32444 32.0833 4.58333V27.5C32.0833 28.7604 31.6349 29.8398 30.7381 30.7381C29.8413 31.6365 28.7619 32.0849 27.5 32.0833H4.58333ZM6.875 22.9167H25.2083L19.25 14.8958L14.8958 20.625L11.6875 16.3854L6.875 22.9167ZM36.6667 32.0833V0H41.25V32.0833H36.6667ZM45.8333 32.0833V0H50.4167V32.0833H45.8333Z" fill="var(--fill-0, #005299)"/>
</svg>
