<svg preserveAspectRatio="none" width="100%" height="100%" overflow="visible" style="display: block;" viewBox="0 0 41.2501 45.8333" fill="none" xmlns="http://www.w3.org/2000/svg">
<path id="Vector" d="M41.25 16.0417V43.5256C41.2521 43.8266 41.1949 44.125 41.0817 44.4038C40.9685 44.6827 40.8015 44.9365 40.5901 45.1508C40.3788 45.3651 40.1274 45.5357 39.8501 45.6528C39.5729 45.7699 39.2753 45.8312 38.9744 45.8333H2.27563C1.67249 45.8333 1.09402 45.5939 0.667325 45.1676C0.240628 44.7414 0.000607388 44.1631 0 43.56V2.27333C0 1.04271 1.02437 0 2.28708 0H25.2083V13.75C25.2083 14.3578 25.4498 14.9407 25.8795 15.3705C26.3093 15.8002 26.8922 16.0417 27.5 16.0417H41.25ZM41.25 11.4583H29.7917V0.00687505L41.25 11.4583Z" fill="var(--fill-0, #005299)"/>
</svg>
