<svg preserveAspectRatio="none" width="100%" height="100%" overflow="visible" style="display: block;" viewBox="0 0 45.8333 45.8333" fill="none" xmlns="http://www.w3.org/2000/svg">
<path id="Vector" d="M22.9167 11.4583C23.566 11.4583 24.1106 11.2383 24.5506 10.7983C24.9906 10.3583 25.2099 9.81444 25.2083 9.16667C25.2068 8.51889 24.9868 7.975 24.5483 7.535C24.1099 7.095 23.566 6.875 22.9167 6.875C22.2674 6.875 21.7235 7.095 21.285 7.535C20.8465 7.975 20.6265 8.51889 20.625 9.16667C20.6235 9.81444 20.8435 10.3591 21.285 10.8006C21.7265 11.2422 22.2704 11.4614 22.9167 11.4583ZM20.625 29.7917H25.2083V16.0417H20.625V29.7917ZM0 45.8333V4.58333C0 3.32292 0.449167 2.24431 1.3475 1.3475C2.24583 0.450695 3.32444 0.00152778 4.58333 0H41.25C42.5104 0 43.5898 0.449167 44.4881 1.3475C45.3865 2.24583 45.8349 3.32444 45.8333 4.58333V32.0833C45.8333 33.3437 45.3849 34.4231 44.4881 35.3215C43.5913 36.2198 42.5119 36.6682 41.25 36.6667H9.16667L0 45.8333Z" fill="var(--fill-0, #005299)"/>
</svg>
