<svg preserveAspectRatio="none" width="100%" height="100%" overflow="visible" style="display: block;" viewBox="0 0 45.8333 36.6667" fill="none" xmlns="http://www.w3.org/2000/svg">
<path id="Vector" d="M4.58333 36.6667C3.32292 36.6667 2.24431 36.2183 1.3475 35.3215C0.450695 34.4247 0.00152778 33.3453 0 32.0833V4.58333C0 3.32292 0.449167 2.24431 1.3475 1.3475C2.24583 0.450694 3.32444 0.00152778 4.58333 0H41.25C42.5104 0 43.5898 0.449166 44.4881 1.3475C45.3865 2.24583 45.8349 3.32444 45.8333 4.58333V32.0833C45.8333 33.3438 45.3849 34.4231 44.4881 35.3215C43.5913 36.2198 42.5119 36.6682 41.25 36.6667H4.58333ZM22.9167 20.625L41.25 9.16667V4.58333L22.9167 16.0417L4.58333 4.58333V9.16667L22.9167 20.625Z" fill="var(--fill-0, #005299)"/>
</svg>
