<svg preserveAspectRatio="none" width="100%" height="100%" overflow="visible" style="display: block;" viewBox="0 0 41.25 41.25" fill="none" xmlns="http://www.w3.org/2000/svg">
<path id="Vector" d="M4.58333 41.25C3.32292 41.25 2.24431 40.8016 1.3475 39.9048C0.450695 39.008 0.00152778 37.9286 0 36.6667V4.58333C0 3.32292 0.449167 2.24431 1.3475 1.3475C2.24583 0.450695 3.32444 0.00152778 4.58333 0H36.6667C37.9271 0 39.0065 0.449167 39.9048 1.3475C40.8031 2.24583 41.2515 3.32444 41.25 4.58333V36.6667C41.25 37.9271 40.8016 39.0065 39.9048 39.9048C39.008 40.8031 37.9286 41.2515 36.6667 41.25H4.58333ZM9.16667 32.0833H32.0833C32.5417 32.0833 32.8854 31.8733 33.1146 31.4531C33.3438 31.033 33.3056 30.6319 33 30.25L26.6979 21.8281C26.4688 21.5226 26.1632 21.3698 25.7813 21.3698C25.3993 21.3698 25.0938 21.5226 24.8646 21.8281L18.9063 29.7917L14.6667 24.1198C14.4375 23.8142 14.1319 23.6615 13.75 23.6615C13.3681 23.6615 13.0625 23.8142 12.8333 24.1198L8.25 30.25C7.94444 30.6319 7.90625 31.033 8.13542 31.4531C8.36458 31.8733 8.70833 32.0833 9.16667 32.0833Z" fill="var(--fill-0, #005299)"/>
</svg>
