<svg preserveAspectRatio="none" width="100%" height="100%" overflow="visible" style="display: block;" viewBox="0 0 41.2501 41.25" fill="none" xmlns="http://www.w3.org/2000/svg">
<path id="Vector" d="M6.53126 34.375H24.8646C25.3611 34.375 25.7148 34.1649 25.9256 33.7448C26.1365 33.3247 26.0883 32.9236 25.7813 32.5417L20.2813 25.2656C20.0521 24.9601 19.7465 24.8073 19.3646 24.8073C18.9826 24.8073 18.6771 24.9601 18.4479 25.2656L14.3229 30.8229C14.0938 31.1285 13.7882 31.2813 13.4063 31.2813C13.0243 31.2813 12.7188 31.1285 12.4896 30.8229L10.6563 28.3594C10.4271 28.0538 10.1215 27.901 9.73959 27.901C9.35765 27.901 9.05209 28.0538 8.82292 28.3594L5.61459 32.5417C5.30904 32.9236 5.26091 33.3247 5.47022 33.7448C5.67952 34.1649 6.0332 34.375 6.53126 34.375ZM4.58334 41.25C3.32292 41.25 2.24355 40.8016 1.34522 39.9048C0.446883 39.008 -0.00151985 37.9286 7.92965e-06 36.6667V13.75C7.92965e-06 12.4896 0.449175 11.411 1.34751 10.5142C2.24584 9.61736 3.32445 9.16819 4.58334 9.16667H27.5C28.7604 9.16667 29.8398 9.61583 30.7381 10.5142C31.6365 11.4125 32.0849 12.4911 32.0833 13.75V36.6667C32.0833 37.9271 31.6349 39.0065 30.7381 39.9048C29.8413 40.8031 28.762 41.2515 27.5 41.25H4.58334ZM2.29167 4.58333C1.64237 4.58333 1.09772 4.36333 0.657716 3.92333C0.217716 3.48333 -0.00151985 2.93944 7.92965e-06 2.29167C0.00153571 1.64389 0.221536 1.1 0.660008 0.66C1.09848 0.22 1.64237 0 2.29167 0C2.94098 0 3.48563 0.22 3.92563 0.66C4.36563 1.1 4.58487 1.64389 4.58334 2.29167C4.58181 2.93944 4.36181 3.4841 3.92334 3.92562C3.48487 4.36715 2.94098 4.58639 2.29167 4.58333ZM11.4583 4.58333C10.809 4.58333 10.2651 4.36333 9.82667 3.92333C9.3882 3.48333 9.1682 2.93944 9.16667 2.29167C9.16515 1.64389 9.38515 1.1 9.82667 0.66C10.2682 0.22 10.8121 0 11.4583 0C12.1046 0 12.6492 0.22 13.0923 0.66C13.5354 1.1 13.7546 1.64389 13.75 2.29167C13.7454 2.93944 13.5254 3.4841 13.09 3.92562C12.6546 4.36715 12.1107 4.58639 11.4583 4.58333ZM20.625 4.58333C19.9757 4.58333 19.4318 4.36333 18.9933 3.92333C18.5549 3.48333 18.3349 2.93944 18.3333 2.29167C18.3318 1.64389 18.5518 1.1 18.9933 0.66C19.4349 0.22 19.9788 0 20.625 0C21.2713 0 21.8159 0.22 22.259 0.66C22.702 1.1 22.9213 1.64389 22.9167 2.29167C22.9121 2.93944 22.6921 3.4841 22.2567 3.92562C21.8213 4.36715 21.2774 4.58639 20.625 4.58333ZM29.7917 4.58333C29.1424 4.58333 28.5985 4.36333 28.16 3.92333C27.7215 3.48333 27.5015 2.93944 27.5 2.29167C27.4985 1.64389 27.7185 1.1 28.16 0.66C28.6015 0.22 29.1454 0 29.7917 0C30.4379 0 30.9826 0.22 31.4256 0.66C31.8687 1.1 32.0879 1.64389 32.0833 2.29167C32.0788 2.93944 31.8588 3.4841 31.4233 3.92562C30.9879 4.36715 30.444 4.58639 29.7917 4.58333ZM38.9583 4.58333C38.309 4.58333 37.7651 4.36333 37.3267 3.92333C36.8882 3.48333 36.6682 2.93944 36.6667 2.29167C36.6651 1.64389 36.8851 1.1 37.3267 0.66C37.7682 0.22 38.3121 0 38.9583 0C39.6046 0 40.1492 0.22 40.5923 0.66C41.0354 1.1 41.2546 1.64389 41.25 2.29167C41.2454 2.93944 41.0254 3.4841 40.59 3.92562C40.1546 4.36715 39.6107 4.58639 38.9583 4.58333ZM38.9583 13.75C38.309 13.75 37.7651 13.53 37.3267 13.09C36.8882 12.65 36.6682 12.1061 36.6667 11.4583C36.6651 10.8106 36.8851 10.2667 37.3267 9.82667C37.7682 9.38667 38.3121 9.16667 38.9583 9.16667C39.6046 9.16667 40.1492 9.38667 40.5923 9.82667C41.0354 10.2667 41.2546 10.8106 41.25 11.4583C41.2454 12.1061 41.0254 12.6508 40.59 13.0923C40.1546 13.5338 39.6107 13.7531 38.9583 13.75ZM38.9583 22.9167C38.309 22.9167 37.7651 22.6967 37.3267 22.2567C36.8882 21.8167 36.6682 21.2728 36.6667 20.625C36.6651 19.9772 36.8851 19.4333 37.3267 18.9933C37.7682 18.5533 38.3121 18.3333 38.9583 18.3333C39.6046 18.3333 40.1492 18.5533 40.5923 18.9933C41.0354 19.4333 41.2546 19.9772 41.25 20.625C41.2454 21.2728 41.0254 21.8174 40.59 22.259C40.1546 22.7005 39.6107 22.9197 38.9583 22.9167ZM38.9583 32.0833C38.309 32.0833 37.7651 31.8633 37.3267 31.4233C36.8882 30.9833 36.6682 30.4394 36.6667 29.7917C36.6651 29.1439 36.8851 28.6 37.3267 28.16C37.7682 27.72 38.3121 27.5 38.9583 27.5C39.6046 27.5 40.1492 27.72 40.5923 28.16C41.0354 28.6 41.2546 29.1439 41.25 29.7917C41.2454 30.4394 41.0254 30.9841 40.59 31.4256C40.1546 31.8672 39.6107 32.0864 38.9583 32.0833ZM38.9583 41.25C38.309 41.25 37.7651 41.03 37.3267 40.59C36.8882 40.15 36.6682 39.6061 36.6667 38.9583C36.6651 38.3106 36.8851 37.7667 37.3267 37.3267C37.7682 36.8867 38.3121 36.6667 38.9583 36.6667C39.6046 36.6667 40.1492 36.8867 40.5923 37.3267C41.0354 37.7667 41.2546 38.3106 41.25 38.9583C41.2454 39.6061 41.0254 40.1508 40.59 40.5923C40.1546 41.0338 39.6107 41.2531 38.9583 41.25Z" fill="var(--fill-0, #005299)"/>
</svg>
